<svg width="1440" height="750" viewBox="0 0 1440 750" fill="none" xmlns="http://www.w3.org/2000/svg">
<rect width="1440" height="750" fill="#FF7235"/>
<g opacity="0.8">
<mask id="mask0_1205_323" style="mask-type:alpha" maskUnits="userSpaceOnUse" x="0" y="0" width="1440" height="750">
<rect width="1440" height="750" fill="#FF7235"/>
</mask>
<g mask="url(#mask0_1205_323)">
<path fill-rule="evenodd" clip-rule="evenodd" d="M105.764 297.521C187.452 289.324 277.74 282.587 339.41 336.781C403.437 393.047 419.065 485.235 416.316 570.428C413.663 652.645 385.235 733.657 324.803 789.467C266.435 843.371 185.087 861.729 105.764 857.227C31.1136 852.99 -33.0378 814.668 -89.7467 765.938C-152.678 711.86 -228.953 653.396 -227.991 570.428C-227.033 487.802 -149.235 431.704 -85.2662 379.398C-29.5122 333.809 34.1034 304.712 105.764 297.521Z" fill="url(#paint0_linear_1205_323)"/>
<path fill-rule="evenodd" clip-rule="evenodd" d="M1322.2 475.603C1232.25 470.342 1150.62 422.532 1092.57 353.627C1039.19 290.266 1029.16 206.788 1025.97 123.999C1022.6 36.5112 1016.81 -57.8751 1074.17 -124.021C1134.36 -193.421 1231.18 -230.034 1322.2 -217.602C1405.57 -206.215 1456.39 -128.759 1510.6 -64.4098C1558.17 -7.95757 1598.63 51.0642 1610.02 123.999C1623.92 212.967 1637.39 312.48 1580.35 382.157C1520.09 455.774 1417.17 481.158 1322.2 475.603Z" fill="url(#paint1_linear_1205_323)"/>
</g>
</g>
<defs>
<linearGradient id="paint0_linear_1205_323" x1="94.3065" y1="292" x2="94.3065" y2="857.88" gradientUnits="userSpaceOnUse">
<stop stop-color="#FF7235" stop-opacity="0.4"/>
<stop offset="1" stop-color="white" stop-opacity="0.4"/>
</linearGradient>
<linearGradient id="paint1_linear_1205_323" x1="1323.07" y1="476.339" x2="1323.07" y2="-220" gradientUnits="userSpaceOnUse">
<stop stop-color="#FF7235" stop-opacity="0.4"/>
<stop offset="1" stop-color="white" stop-opacity="0.4"/>
</linearGradient>
</defs>
</svg>
