<svg width="445" height="340" viewBox="0 0 445 340" fill="none" xmlns="http://www.w3.org/2000/svg">
<path d="M427.868 12.7323C432.038 12.7323 436.038 14.3889 438.986 17.3378C441.935 20.2867 443.592 24.2863 443.592 28.4566V177.59C443.592 181.76 441.935 185.76 438.986 188.709C436.038 191.658 432.038 193.314 427.868 193.314H234.381C230.21 193.314 226.211 191.658 223.262 188.709C220.313 185.76 218.656 181.76 218.656 177.59V28.4566C218.656 24.2863 220.313 20.2867 223.262 17.3378C226.211 14.3889 230.21 12.7323 234.381 12.7323H427.868ZM427.868 11.3242H234.381C229.838 11.3289 225.483 13.1354 222.271 16.3473C219.06 19.5593 217.253 23.9143 217.248 28.4566V177.59C217.253 182.132 219.06 186.487 222.271 189.699C225.483 192.911 229.838 194.718 234.381 194.722H427.868C432.41 194.718 436.765 192.911 439.977 189.699C443.189 186.487 444.995 182.132 445 177.59V28.4566C444.995 23.9143 443.189 19.5593 439.977 16.3473C436.765 13.1354 432.41 11.3289 427.868 11.3242Z" fill="white"/>
<path d="M427.868 12.7319H234.381C225.696 12.7319 218.656 19.772 218.656 28.4563V177.59C218.656 186.274 225.696 193.314 234.381 193.314H427.868C436.552 193.314 443.592 186.274 443.592 177.59V28.4563C443.592 19.772 436.552 12.7319 427.868 12.7319Z" fill="#F5EBDD"/>
<path d="M229.685 119.04C233.855 119.04 237.855 120.697 240.804 123.645C243.753 126.594 245.409 130.594 245.409 134.764V283.898C245.409 288.068 243.753 292.067 240.804 295.016C237.855 297.965 233.855 299.622 229.685 299.622H36.1982C32.0278 299.622 28.0282 297.965 25.0794 295.016C22.1305 292.067 20.4738 288.068 20.4738 283.898V134.764C20.4738 130.594 22.1305 126.594 25.0794 123.645C28.0282 120.697 32.0278 119.04 36.1982 119.04H229.685ZM229.685 117.632H36.1982C31.6558 117.636 27.3008 119.443 24.0889 122.655C20.8769 125.867 19.0704 130.222 19.0658 134.764V283.898C19.0704 288.44 20.8769 292.795 24.0889 296.007C27.3008 299.219 31.6558 301.025 36.1982 301.03H229.685C234.227 301.025 238.582 299.219 241.794 296.007C245.006 292.795 246.813 288.44 246.817 283.898V134.764C246.813 130.222 245.006 125.867 241.794 122.655C238.582 119.443 234.227 117.636 229.685 117.632Z" fill="white"/>
<path d="M229.685 119.04H36.1982C27.5138 119.04 20.4738 126.08 20.4738 134.764V283.898C20.4738 292.582 27.5138 299.622 36.1982 299.622H229.685C238.369 299.622 245.409 292.582 245.409 283.898V134.764C245.409 126.08 238.369 119.04 229.685 119.04Z" fill="#F5EBDD"/>
<path d="M186.423 129.812C186.423 129.667 186.423 129.46 186.423 129.245L186.592 129.118L186.426 129.083C186.426 126.056 186.169 117.065 183.23 110.215C180.618 104.129 177.013 101.316 174.511 102.39C172.008 103.464 171.561 108.022 174.159 114.098C175.609 117.484 177.893 120.755 180.094 123.451C175.662 119.251 169.611 114.045 164.147 111.18C156.755 107.308 151.007 107.424 149.412 110.458C147.818 113.493 150.996 118.298 158.381 122.173C163.186 124.697 169.748 126.566 175.324 127.837C172.335 127.734 169.344 127.987 166.414 128.59C159.951 130.041 156.53 133.071 157.125 135.726C157.72 138.38 162.109 139.658 168.572 138.207C175.771 136.592 183.128 131.625 185.659 129.798L186.106 129.865C186.289 130.037 186.398 130.132 186.398 130.132C186.398 130.132 186.398 130.051 186.398 129.907H186.504L186.423 129.812Z" fill="#3EC1F3"/>
<path d="M257.494 161.819L257.385 161.714V161.932L257.494 161.819Z" fill="#3EC1F3"/>
<path d="M249.056 170.345L248.968 153.382L240.309 144.811L240.481 179.005L249.056 170.345Z" fill="#3EC1F3"/>
<path d="M189.235 123.665L189.524 180.723L198.183 189.294L197.807 115.006L189.235 123.665Z" fill="#3EC1F3"/>
<path d="M160.853 152.34L181.107 172.391L180.903 132.082L160.853 152.34Z" fill="#3EC1F3"/>
<path d="M232.153 187.418L231.896 136.482L223.233 127.907L223.578 196.081L232.153 187.418Z" fill="#3EC1F3"/>
<path d="M214.82 119.579L206.16 111.007L206.597 197.627L214.401 205.35L215.249 204.495L214.82 119.579Z" fill="#3EC1F3"/>
<path d="M180.903 132.082L181.107 172.391L189.524 180.723L189.235 123.666L180.903 132.082Z" fill="#4756DF"/>
<path d="M203.942 108.811L197.807 115.006L198.183 189.295L206.597 197.627L206.16 111.007L203.942 108.811Z" fill="#4756DF"/>
<path d="M223.578 196.081L223.233 127.907L214.819 119.579L215.249 204.494L223.578 196.081Z" fill="#4756DF"/>
<path d="M240.481 179.005L240.309 144.811L231.896 136.482L232.153 187.418L240.481 179.005Z" fill="#4756DF"/>
<path d="M257.385 161.932V161.714L248.968 153.382L249.056 170.345L257.385 161.932Z" fill="#4756DF"/>
<path d="M217.301 122.215L174.289 165.664" stroke="black" stroke-width="4" stroke-linejoin="round"/>
<path d="M206.171 106.559L158.62 154.594L171.536 167.38L219.087 119.345L206.171 106.559Z" fill="#4756DF"/>
<path d="M193.312 184.162C193.312 184.162 197.888 169.025 195.072 166.561C191.671 163.587 185.919 173.249 181.283 184.866C176.408 197.07 162.275 231.683 161.571 234.147C161.571 234.147 137.49 220.982 126.722 216.195C117.217 211.971 105.64 210.436 105.64 210.436L104.168 201.597C104.168 201.597 111.043 204.061 116.936 200.615C122.828 197.169 124.303 190.79 122.339 180.969C121.174 175.15 121.216 167.945 120.227 161.52C116.305 162.182 110.561 160.834 110.561 160.834C102.7 169.673 94.3681 171.637 94.3681 171.637C88.9647 165.745 79.1401 165.745 77.6687 174.101C76.0389 183.342 87.4898 185.887 87.4898 185.887C87.4898 185.887 89.8201 199.298 84.892 212.675C78.0453 231.261 50.4441 236.193 39.1304 228.163C18.7138 242.596 36.7755 286.446 53.9149 307.014C67.9954 323.91 117.981 315.11 117.981 315.11C117.981 315.11 123.613 319.334 130.301 320.742C142.27 344.327 147.198 337.639 147.198 337.639C147.198 337.639 151.422 342.215 154.59 337.287C160.927 337.639 160.574 333.767 154.942 320.39C161.279 328.135 167.481 328.159 167.615 326.023C167.967 320.39 149.31 300.678 137.694 295.75C128.967 292.046 124.669 290.821 124.669 290.821L122.909 262.308C122.909 262.308 160.265 282.824 177.823 273.221C200.352 260.9 209.504 200.354 209.504 200.354L193.312 184.162Z" fill="#EAA58B"/>
<path d="M84.892 212.675C89.8202 199.299 87.4687 185.88 87.4687 185.88C87.4687 185.88 76.0178 183.335 77.6476 174.095C79.119 165.745 88.9436 165.745 94.347 171.63C94.347 171.63 102.693 169.666 110.54 160.827C110.54 160.827 116.284 162.175 120.206 161.514C119.519 157.089 118.344 153.023 115.939 150.02C110.047 142.656 93.8401 137.742 81.0727 147.074C68.3052 156.406 69.2838 171.63 69.7766 177.523C69.7766 177.523 47.6949 172.116 35.9483 188.731C21.5158 209.148 39.1164 228.157 39.1164 228.157C50.4441 236.193 78.0454 231.261 84.892 212.675Z" fill="#30242A"/>
<path d="M123.525 272.295L122.909 262.309H122.941L119.995 213.675C116.744 212.67 113.442 211.839 110.103 211.186L108.477 244.708H81.0199L70.5897 227.759C66.8669 229.596 62.8797 230.839 58.7727 231.444L74.4584 270.32L80.3158 284.837C80.3158 284.837 93.6923 285.541 105.661 287.302C117.629 289.062 124.669 290.822 124.669 290.822L123.525 272.295Z" fill="#FF7235"/>
<path d="M193.836 185.035C193.547 185.953 193.252 186.848 192.96 187.682C192.96 187.682 201.936 198.066 196.304 211.443" stroke="#BB7259" stroke-width="4" stroke-miterlimit="10" stroke-linecap="round"/>
<path d="M160.747 233.834L157.054 243.3" stroke="#BB7259" stroke-width="4" stroke-miterlimit="10" stroke-linecap="round"/>
<path d="M156.35 322.031C154.861 318.655 153.02 314.705 151.394 311.822" stroke="#BB7259" stroke-width="4" stroke-miterlimit="10" stroke-linecap="round"/>
<path d="M144.787 315.332C149.011 322.77 152.323 331.099 154.4 336.949" stroke="#BB7259" stroke-width="4" stroke-miterlimit="10" stroke-linecap="round"/>
<path d="M138.218 319.5C141.386 325.315 144.47 332.091 146.758 337.417" stroke="#BB7259" stroke-width="4" stroke-miterlimit="10" stroke-linecap="round"/>
<path d="M124.141 276.565L77.3237 276.213" stroke="#724342" stroke-width="4" stroke-miterlimit="10" stroke-linecap="round"/>
<path d="M63.1306 298.794C60.846 298.019 58.3992 297.85 56.0297 298.304C53.6602 298.758 51.4493 299.82 49.6133 301.385C51.039 303.402 52.4787 305.293 53.9149 307.017C57.8082 311.689 64.4436 314.41 72.0083 315.864C73.9268 308.69 70.1075 301.195 63.1306 298.794Z" fill="#CA7358"/>
<path d="M177.823 273.221C180.882 271.549 183.691 268.997 186.271 265.808C184.601 263.296 182.151 261.405 179.298 260.426C171.994 257.916 163.993 261.929 161.426 269.388C160.758 271.333 160.509 273.398 160.698 275.446C167.087 276.199 173.155 275.773 177.823 273.221Z" fill="#CA7358"/>
<path d="M58.7692 231.444C51.1869 232.574 43.7805 231.465 39.1305 228.164C24.2932 238.654 29.7775 264.674 40.4611 286.01L74.4584 270.321L58.7692 231.444Z" fill="#FFBE21"/>
<path d="M84.892 212.675C82.3504 219.571 76.9506 224.587 70.5897 227.759L81.0198 244.708H108.477L110.103 211.204C107.4 210.672 105.64 210.436 105.64 210.436L104.957 206.339H86.7295C86.2633 208.491 85.6493 210.608 84.892 212.675Z" fill="#FFBE21"/>
<path d="M126.718 216.195C124.526 215.235 122.281 214.4 119.995 213.692L122.941 262.326C127.617 264.802 132.425 267.022 137.342 268.976L151.774 228.868C143.861 224.643 133.016 219.011 126.718 216.195Z" fill="#FFBE21"/>
<path d="M34.1935 246.136C43.6219 240.692 47.4323 229.64 42.7043 221.451C37.9762 213.262 26.5001 211.036 17.0717 216.48C7.64325 221.923 3.83286 232.975 8.56093 241.164C13.289 249.353 24.7651 251.579 34.1935 246.136Z" fill="#30242A"/>
<path d="M30.5061 212.146C30.5061 212.146 32.9702 226.931 44.9386 231.507" stroke="black" stroke-width="4" stroke-linecap="round" stroke-linejoin="round"/>
<path d="M296.627 125.2L298.035 135.761" stroke="#F5EBDC" stroke-width="4" stroke-miterlimit="10" stroke-linecap="round"/>
<path d="M413.671 112.704C413.671 112.704 429.512 94.0472 411.911 78.2067C401.153 68.5264 388.231 71.2228 388.231 71.2228C388.72 65.3301 389.703 50.1021 376.935 40.7738C364.168 31.4454 347.957 36.356 342.065 43.7201C336.172 51.0842 337.647 64.8408 335.683 74.6619C333.719 84.4831 335.19 90.8545 341.083 94.3077C346.975 97.7609 353.854 95.2898 353.854 95.2898L352.379 104.129C352.379 104.129 340.805 105.664 331.3 109.888C320.529 114.675 296.451 127.84 296.451 127.84C295.747 125.376 291.875 85.2469 290.115 72.2225C288.774 62.2993 284.131 50.0457 280.611 52.5098C277.196 54.9 278.498 62.7182 278.498 62.7182L260.546 81.3748C260.546 81.3748 251.672 145.346 272.866 162.69C288.355 175.362 328.836 154.945 328.836 154.945L323.556 193.315H371.859C371.859 193.315 362.802 195.722 343.973 204.227C322.148 214.083 309.476 241.54 310.884 243.652C312.292 245.764 316.516 244.004 322.148 236.964C317.22 255.269 322.148 253.861 325.316 253.509C328.537 258.141 332.708 252.453 332.708 252.453C332.708 252.453 338.34 257.733 347.141 233.092C351.139 231.207 354.82 228.713 358.053 225.7C358.053 225.7 414.023 222.18 424.935 202.467C435.848 182.754 428.455 131.36 413.671 112.704Z" fill="#A15842"/>
<path d="M340.505 70.2156C341.312 70.2156 341.966 69.5616 341.966 68.7548C341.966 67.948 341.312 67.2939 340.505 67.2939C339.698 67.2939 339.044 67.948 339.044 68.7548C339.044 69.5616 339.698 70.2156 340.505 70.2156Z" fill="#30242A"/>
<path d="M80.1398 284.31L72.0435 283.958" stroke="#BB7259" stroke-width="4" stroke-miterlimit="10" stroke-linecap="round"/>
<path d="M104.045 202.421C101.918 201.691 99.854 200.788 97.8741 199.721" stroke="#BB7259" stroke-width="4" stroke-miterlimit="10" stroke-linecap="round"/>
<path d="M69.2415 177.428C69.509 180.114 69.8716 183.458 70.2236 186.098" stroke="black" stroke-width="4" stroke-linecap="round" stroke-linejoin="round"/>
<path d="M102.302 276.185C102.302 276.185 94.1463 264.642 97.934 263.125C100.993 261.9 101.866 270.88 102.302 276.185Z" stroke="#724342" stroke-width="4" stroke-linecap="round" stroke-linejoin="round"/>
<path d="M102.559 276.389C102.559 276.389 106.569 267.131 109.086 268.613C111.117 269.81 105.759 273.971 102.559 276.389Z" stroke="#724342" stroke-width="4" stroke-linecap="round" stroke-linejoin="round"/>
<path d="M106.442 210.683L107.069 214.435" stroke="#BB7259" stroke-width="4" stroke-miterlimit="10" stroke-linecap="round"/>
<path d="M88.919 177.984L84.5364 175.548" stroke="#BB7259" stroke-width="4" stroke-miterlimit="10" stroke-linecap="round"/>
<path d="M109.839 186.221C110.089 190.84 114.834 191.223 115.996 187.981L109.839 186.221Z" stroke="#BB7259" stroke-width="4" stroke-linecap="round" stroke-linejoin="round"/>
<path d="M107.005 178.107C107.812 178.107 108.466 177.453 108.466 176.646C108.466 175.84 107.812 175.186 107.005 175.186C106.199 175.186 105.544 175.84 105.544 176.646C105.544 177.453 106.199 178.107 107.005 178.107Z" fill="#724342"/>
<path d="M117.868 175.467C118.675 175.467 119.329 174.813 119.329 174.006C119.329 173.199 118.675 172.545 117.868 172.545C117.062 172.545 116.408 173.199 116.408 174.006C116.408 174.813 117.062 175.467 117.868 175.467Z" fill="#724342"/>
<path d="M114.13 178.432C114.482 179.364 114.813 180.389 114.707 180.773C114.558 181.233 114.256 181.629 113.852 181.895" stroke="#BB7259" stroke-width="4" stroke-miterlimit="10" stroke-linecap="round"/>
<path d="M101.215 139.358L103.077 141.403L104.309 142.762C105.094 145.508 99.3808 149.883 91.4394 152.594C83.498 155.304 76.3029 155.329 75.2468 152.675L75.3947 150.844L75.62 148.088C78.6015 148.792 83.7761 148.225 89.3132 146.328C94.8504 144.43 99.2927 141.752 101.215 139.358Z" fill="#FFB494"/>
<path d="M87.1659 140.069C91.3197 138.661 94.8609 136.781 97.1842 134.922L101.215 139.358C99.2928 141.751 94.8433 144.448 89.3027 146.338C83.762 148.228 78.5909 148.802 75.6094 148.098L76.0917 142.114C79.0662 142.167 83.0122 141.484 87.1659 140.069Z" fill="#FF7235"/>
<path d="M92.8685 130.178L97.1842 134.923C94.8609 136.781 91.3197 138.654 87.1659 140.069C83.0122 141.484 79.0697 142.181 76.0916 142.118L76.6056 135.722C82.3537 135.028 87.8932 133.139 92.8685 130.178Z" fill="#FFB494"/>
<path d="M82.889 127.53C84.768 126.894 86.5996 126.126 88.3699 125.231L92.8686 130.177C87.8932 133.139 82.3538 135.027 76.6056 135.721L77.1477 129.061C79.0949 128.686 81.0134 128.174 82.889 127.53Z" fill="#FF7235"/>
<path d="M77.1477 129.062L78.3481 114.207L88.3734 125.232C86.6031 126.127 84.7716 126.895 82.8925 127.531C81.0158 128.175 79.0961 128.686 77.1477 129.062Z" fill="#FFB494"/>
<path d="M77.4997 117.15C80.4936 117.15 82.9207 114.723 82.9207 111.729C82.9207 108.735 80.4936 106.308 77.4997 106.308C74.5058 106.308 72.0787 108.735 72.0787 111.729C72.0787 114.723 74.5058 117.15 77.4997 117.15Z" fill="#FF7235"/>
<path d="M86.124 191.906C88.5541 191.906 90.5241 189.936 90.5241 187.506C90.5241 185.075 88.5541 183.105 86.124 183.105C83.6939 183.105 81.7238 185.075 81.7238 187.506C81.7238 189.936 83.6939 191.906 86.124 191.906Z" fill="#F4E6D8"/>
<path d="M361.971 210.511L362.876 212.535L368.297 224.683C384.982 222.62 416.969 216.861 424.935 202.467C435.848 182.754 428.456 131.361 413.671 112.704C401.351 126.253 382.3 122.56 374.661 111.296C373.253 111.646 371.819 111.881 370.374 112C368.119 112.208 365.846 112.119 363.615 111.733C360.941 111.286 358.409 110.219 356.223 108.617C353.438 106.523 352.421 104.256 352.421 104.256L351.949 104.189C349.788 104.509 339.731 106.139 331.3 109.888C320.529 114.675 296.451 127.841 296.451 127.841C296.134 126.735 295.18 118.03 294.064 107.6L280.392 112.88L278.91 113.454L271.838 116.193L258.979 121.17C259.902 137.743 263.362 154.91 272.866 162.69C288.355 175.362 328.836 154.946 328.836 154.946L323.556 193.315H371.859C371.859 193.315 366.906 194.635 356.723 198.753L359.067 204.002L361.971 210.511Z" fill="#FFB494"/>
<path d="M295.395 147.201C291.1 147.201 286.982 148.907 283.945 151.943C280.908 154.98 279.202 159.099 279.202 163.393C279.203 164.235 279.267 165.075 279.396 165.907C288.626 168.371 301.312 165.477 311.528 162.034C311.187 157.99 309.34 154.221 306.352 151.474C303.364 148.726 299.454 147.201 295.395 147.201Z" fill="#FF7235"/>
<path d="M279.554 117.984C279.554 116.454 279.337 114.933 278.91 113.464L271.838 116.203L258.979 121.18C259.215 125.429 259.62 129.716 260.25 133.874C262.596 134.333 265.014 134.267 267.331 133.681C269.648 133.095 271.807 132.004 273.653 130.485C275.498 128.966 276.984 127.057 278.005 124.896C279.025 122.734 279.554 120.374 279.554 117.984Z" fill="#FF7235"/>
<path d="M326.372 129.248C329.07 129.247 331.725 128.572 334.096 127.283C336.466 125.995 338.478 124.135 339.946 121.872C341.415 119.608 342.295 117.014 342.507 114.324C342.718 111.634 342.254 108.935 341.157 106.47C337.79 107.359 334.495 108.502 331.3 109.888C326.344 112.091 318.568 116.069 311.616 119.723C312.898 122.562 314.973 124.971 317.59 126.66C320.208 128.35 323.257 129.248 326.372 129.248Z" fill="#FF7235"/>
<path d="M365.797 166.21C374.74 166.21 381.99 158.96 381.99 150.017C381.99 141.074 374.74 133.825 365.797 133.825C356.855 133.825 349.605 141.074 349.605 150.017C349.605 158.96 356.855 166.21 365.797 166.21Z" fill="#FF7235"/>
<path d="M334.116 175.714C331.133 175.713 328.209 176.541 325.668 178.104L323.556 193.314H350.242C350.284 192.85 350.309 192.382 350.309 191.906C350.309 187.612 348.603 183.493 345.566 180.457C342.529 177.42 338.411 175.714 334.116 175.714Z" fill="#FF7235"/>
<path d="M392.226 121.286C392.226 121.592 392.198 121.898 392.198 122.208C392.2 125.8 393.395 129.289 395.597 132.127C397.798 134.965 400.881 136.99 404.36 137.885C407.838 138.779 411.516 138.491 414.813 137.066C418.11 135.642 420.84 133.161 422.573 130.016C420.085 123.035 417.075 116.991 413.671 112.704C407.458 119.536 399.534 121.983 392.226 121.286Z" fill="#FF7235"/>
<path d="M407.335 189.794C407.336 193.896 408.893 197.844 411.692 200.841C414.491 203.839 418.323 205.663 422.415 205.945C423.387 204.887 424.232 203.72 424.935 202.467C428.526 195.983 430.135 186.067 430.149 175.01C427.682 173.905 424.978 173.435 422.284 173.642C419.589 173.85 416.989 174.728 414.721 176.198C412.453 177.668 410.589 179.682 409.299 182.057C408.009 184.432 407.333 187.092 407.335 189.794Z" fill="#FF7235"/>
<path d="M373.19 205.986C369.005 205.982 364.982 207.604 361.971 210.51L362.876 212.534L368.297 224.682C375.367 223.823 382.389 222.608 389.336 221.042C389.049 216.955 387.223 213.13 384.227 210.336C381.23 207.542 377.286 205.988 373.19 205.986Z" fill="#FF7235"/>
<path d="M400.471 183.282C391.008 186.507 378.248 190.428 370.374 192.963" stroke="#F5EBDC" stroke-width="4" stroke-miterlimit="10" stroke-linecap="round"/>
<path d="M390.442 149.066L393.782 185.394" stroke="#F5EBDC" stroke-width="4" stroke-miterlimit="10" stroke-linecap="round"/>
<path d="M321.201 237.886C322.356 234.32 324.816 226.995 326.978 222.31" stroke="#30242A" stroke-width="4" stroke-miterlimit="10" stroke-linecap="round"/>
<path d="M333.852 225.256C328.945 235.816 326.066 247.855 324.999 252.847" stroke="#30242A" stroke-width="4" stroke-miterlimit="10" stroke-linecap="round"/>
<path d="M340.727 228.691C337.559 235.999 334.785 245.975 333.229 252.114" stroke="#30242A" stroke-width="4" stroke-miterlimit="10" stroke-linecap="round"/>
<path d="M329.973 142.431L328.058 155.209" stroke="#F5EBDC" stroke-width="4" stroke-miterlimit="10" stroke-linecap="round"/>
<path d="M411.911 78.2067C401.153 68.5264 388.231 71.2228 388.231 71.2228C388.72 65.3301 389.702 50.1021 376.935 40.7738C364.168 31.4454 347.957 36.356 342.065 43.7201C339.664 46.7228 338.485 50.7885 337.798 55.2133C341.72 55.8751 347.468 54.5269 347.468 54.5269C355.325 63.3659 363.661 65.3301 363.661 65.3301C369.064 59.4374 378.885 59.4374 380.36 67.7942C381.99 77.0345 370.535 79.5795 370.535 79.5795C370.535 79.5795 368.107 92.7483 372.119 106.023C372.691 107.9 373.543 109.68 374.647 111.303C382.286 122.567 401.34 126.263 413.657 112.711C414.266 111.961 414.832 111.175 415.35 110.359C418.916 104.85 425.749 90.6609 411.911 78.2067Z" fill="#30242A"/>
<path d="M353.801 95.9132C356.077 95.2466 358.271 94.3255 360.341 93.1675" stroke="#30242A" stroke-width="4" stroke-miterlimit="10" stroke-linecap="round"/>
<path d="M388.777 71.1206C388.509 73.8065 388.15 77.1506 387.798 79.7907" stroke="black" stroke-width="4" stroke-miterlimit="10" stroke-linecap="round"/>
<path d="M369.099 71.6766L373.482 69.2407" stroke="#30242A" stroke-width="4" stroke-miterlimit="10" stroke-linecap="round"/>
<path d="M344.191 83.1024C344.997 83.6058 348.014 83.9965 349.239 81.6768" stroke="#30242A" stroke-width="4" stroke-miterlimit="10" stroke-linecap="round"/>
<path d="M352.125 72.1522C352.932 72.1522 353.586 71.4981 353.586 70.6913C353.586 69.8845 352.932 69.2305 352.125 69.2305C351.318 69.2305 350.664 69.8845 350.664 70.6913C350.664 71.4981 351.318 72.1522 352.125 72.1522Z" fill="#30242A"/>
<path d="M344.011 74.2505C343.786 75.222 343.6 76.2816 343.754 76.6442C343.965 77.0812 344.317 77.4337 344.754 77.6439" stroke="#30242A" stroke-width="4" stroke-miterlimit="10" stroke-linecap="round"/>
<path d="M343.431 70.1207C344.309 66.3329 342.257 62.6217 338.848 61.8316C335.439 61.0414 331.964 63.4715 331.086 67.2593C330.208 71.0471 332.26 74.7582 335.669 75.5484C339.078 76.3386 342.553 73.9085 343.431 70.1207Z" stroke="black" stroke-width="4" stroke-miterlimit="10" stroke-linecap="round"/>
<path d="M358.921 72.5831C359.799 68.7953 357.747 65.0842 354.338 64.294C350.929 63.5038 347.454 65.9339 346.576 69.7217C345.698 73.5095 347.75 77.2206 351.159 78.0108C354.568 78.801 358.043 76.3709 358.921 72.5831Z" stroke="black" stroke-width="4" stroke-miterlimit="10" stroke-linecap="round"/>
<path d="M343.797 69.582L346.261 69.934" stroke="black" stroke-width="4" stroke-miterlimit="10" stroke-linecap="round"/>
<path d="M274.098 64.6538C274.098 64.6538 280.787 70.286 281.491 71.694C281.491 71.694 270.578 82.9584 279.026 96.6869" stroke="#30242A" stroke-width="4" stroke-miterlimit="10" stroke-linecap="round"/>
<path d="M309.942 28.1881C310.751 26.8661 310.335 25.1388 309.013 24.3301C307.691 23.5213 305.963 23.9374 305.155 25.2594L251.833 112.419C251.025 113.741 251.441 115.469 252.763 116.277C254.085 117.086 255.812 116.67 256.621 115.348L309.942 28.1881Z" fill="#30242A"/>
<path d="M314.787 5.54064L320.849 0.689913C321.343 0.293246 321.947 0.0577781 322.58 0.0152753C323.212 -0.0272275 323.842 0.125281 324.385 0.452228C324.928 0.779176 325.358 1.26483 325.616 1.84364C325.875 2.42244 325.949 3.06656 325.83 3.68905L324.376 11.3242C324.262 11.9257 324.328 12.5477 324.566 13.1115C324.805 13.6754 325.206 14.1559 325.717 14.4923L332.201 18.7587C332.731 19.1063 333.142 19.6081 333.378 20.1964C333.614 20.7846 333.663 21.4311 333.52 22.0485C333.377 22.666 333.048 23.2246 332.577 23.6491C332.107 24.0737 331.517 24.3436 330.888 24.4226L323.204 25.4047C322.596 25.4816 322.024 25.737 321.561 26.1386C321.098 26.5402 320.765 27.07 320.603 27.6611L318.55 35.1448C318.382 35.7553 318.031 36.2997 317.544 36.7047C317.057 37.1097 316.458 37.356 315.827 37.4104C315.196 37.4649 314.564 37.3248 314.015 37.0092C313.466 36.6935 313.027 36.2173 312.756 35.6447L309.451 28.6044C309.188 28.0528 308.767 27.5913 308.242 27.2781C307.717 26.9649 307.111 26.814 306.501 26.8444L298.757 27.1964C298.12 27.2363 297.486 27.0783 296.942 26.7441C296.398 26.4099 295.97 25.9157 295.718 25.3293C295.465 24.7428 295.4 24.0927 295.532 23.4679C295.663 22.8431 295.984 22.2741 296.451 21.8388L302.108 16.5234C302.555 16.1037 302.867 15.561 303.005 14.964C303.144 14.3669 303.102 13.7422 302.886 13.1687L300.147 5.90673C299.922 5.31301 299.885 4.66462 300.041 4.04914C300.196 3.43367 300.537 2.88074 301.017 2.46505C301.497 2.04935 302.092 1.79092 302.724 1.72465C303.355 1.65837 303.992 1.78744 304.547 2.09444L311.352 5.83633C311.889 6.13215 312.503 6.26194 313.114 6.20931C313.726 6.15668 314.308 5.92399 314.787 5.54064Z" fill="#3EC1F3"/>
<path d="M278.498 62.7177C276.034 60.6056 271.3 59.2363 268.994 60.6056C265.101 62.9183 266.058 67.41 266.058 67.41C266.058 67.41 259.722 66.4244 259.8 72.9155C259.8 72.9155 254.699 75.1472 256.931 80.2479C256.931 80.2479 252.516 81.3637 254.614 86.7988C256.322 91.2306 260.261 93.5504 262.658 94.7507C264.77 95.8068 268.009 94.2826 266.882 90.1746C266.882 90.1746 269.346 90.8786 270.754 89.4706C272.697 87.5275 271.81 83.8384 271.81 83.8384C271.81 83.8384 274.274 84.5424 276.034 83.1344C278.182 81.4165 277.09 78.2062 277.09 78.2062C277.877 78.1001 278.621 77.7819 279.241 77.2859C279.861 76.7899 280.334 76.1345 280.611 75.3901C282.019 71.87 276.738 67.6458 276.738 67.6458L278.498 62.7177Z" fill="#A15842"/>
<path d="M256.674 80.4487C259.773 84.2105 263.188 87.6999 266.882 90.8788" stroke="#30242A" stroke-width="4" stroke-miterlimit="10" stroke-linecap="round"/>
<path d="M259.842 72.8838C263.472 77.3219 267.614 81.3146 272.183 84.7783" stroke="#30242A" stroke-width="4" stroke-miterlimit="10" stroke-linecap="round"/>
<path d="M265.474 67.7061C268.8 72.0768 272.804 75.8879 277.333 78.9951" stroke="#30242A" stroke-width="4" stroke-miterlimit="10" stroke-linecap="round"/>
<path d="M274.098 64.6538C274.098 64.6538 277.397 67.4312 279.604 69.582" stroke="#30242A" stroke-width="4" stroke-miterlimit="10" stroke-linecap="round"/>
<path d="M356.803 33.0503L354.945 35.0955L353.709 36.4542C352.924 39.1999 358.637 43.5754 366.582 46.2859C374.527 48.9964 381.719 49.0211 382.775 46.3669L382.627 44.5364L382.405 41.7802C379.42 42.4842 374.249 41.9175 368.709 40.0201C363.168 38.1228 358.729 35.444 356.803 33.0503Z" fill="#FFBE21"/>
<path d="M370.856 33.7612C366.702 32.3531 363.161 30.4734 360.838 28.6147L356.803 33.0501C358.729 35.4438 363.178 38.1402 368.716 40.0305C374.253 41.9208 379.427 42.4946 382.412 41.7905L381.93 35.8063C378.956 35.8592 375.01 35.1762 370.856 33.7612Z" fill="#FF7235"/>
<path d="M365.153 23.8696L360.838 28.6147C363.161 30.4734 366.702 32.3461 370.856 33.7612C375.01 35.1763 378.952 35.8732 381.93 35.8099L381.413 29.4138C375.666 28.7196 370.127 26.8311 365.153 23.8696Z" fill="#FFBE21"/>
<path d="M375.133 21.223C373.253 20.5873 371.42 19.8192 369.648 18.9243L365.153 23.8525C370.127 26.814 375.666 28.7025 381.413 29.3967L380.874 22.7366C378.927 22.3665 377.009 21.8607 375.133 21.223Z" fill="#FF7235"/>
<path d="M380.874 22.7543L379.674 7.89941L369.648 18.9244C371.42 19.8193 373.253 20.5874 375.133 21.2231C377.008 21.8667 378.927 22.3784 380.874 22.7543Z" fill="#FFBE21"/>
<path d="M380.518 10.842C383.512 10.842 385.939 8.41491 385.939 5.42098C385.939 2.42705 383.512 0 380.518 0C377.525 0 375.098 2.42705 375.098 5.42098C375.098 8.41491 377.525 10.842 380.518 10.842Z" fill="#FF7235"/>
</svg>
