<svg width="20" height="19" viewBox="0 0 20 19" fill="none" xmlns="http://www.w3.org/2000/svg">
<path d="M18 4.00004H15.82C15.93 3.69004 16 3.35004 16 3.00004C16.0011 2.35486 15.7939 1.72657 15.4092 1.20863C15.0245 0.690689 14.4829 0.310766 13.8649 0.125376C13.2469 -0.0600139 12.5856 -0.0409654 11.9794 0.179688C11.3731 0.400342 10.8542 0.810811 10.5 1.35004L10 2.02004L9.5 1.34004C8.96 0.540037 8.05 3.75273e-05 7 3.75273e-05C5.34 3.75273e-05 4 1.34004 4 3.00004C4 3.35004 4.07 3.69004 4.18 4.00004H2C0.89 4.00004 0.00999999 4.89004 0.00999999 6.00004L0 17C0 18.11 0.89 19 2 19H18C19.11 19 20 18.11 20 17V6.00004C20 4.89004 19.11 4.00004 18 4.00004ZM13 2.00004C13.55 2.00004 14 2.45004 14 3.00004C14 3.55004 13.55 4.00004 13 4.00004C12.45 4.00004 12 3.55004 12 3.00004C12 2.45004 12.45 2.00004 13 2.00004ZM7 2.00004C7.55 2.00004 8 2.45004 8 3.00004C8 3.55004 7.55 4.00004 7 4.00004C6.45 4.00004 6 3.55004 6 3.00004C6 2.45004 6.45 2.00004 7 2.00004ZM18 17H2V15H18V17ZM18 12H2V6.00004H7.08L5 8.83004L6.62 10L10 5.40004L13.38 10L15 8.83004L12.92 6.00004H18V12Z" fill="#FF7235"/>
</svg>
