<svg width="540" height="434" viewBox="0 0 540 434" fill="none" xmlns="http://www.w3.org/2000/svg">
<path d="M97.1833 231.623H85.4194V431.565H97.1833V231.623Z" fill="#FFBE21"/>
<path d="M97.1881 234.372H85.4194" stroke="#A15842" stroke-width="4" stroke-miterlimit="10"/>
<path d="M32.0366 391.446C33.2282 388.028 35.4536 385.066 38.4043 382.97C41.355 380.874 44.8847 379.748 48.5041 379.748C52.1234 379.748 55.6531 380.874 58.6038 382.97C61.5545 385.066 63.7799 388.028 64.9715 391.446C66.1089 388.183 68.1898 385.331 70.9502 383.253C73.7107 381.175 77.0263 379.964 80.4763 379.773C78.936 377.028 77.1019 374.458 75.0063 372.109L68.6741 364.987C66.7055 362.774 65.4657 360.009 65.1229 357.067C64.7801 354.125 65.3511 351.149 66.7582 348.543L72.1324 338.556C70.6236 340.075 61.9012 348.241 48.6621 348.241C35.423 348.241 26.7007 340.075 25.1919 338.556H25.1679L30.5469 348.543C31.9478 351.154 32.5099 354.134 32.1568 357.076C31.8037 360.019 30.5525 362.781 28.5735 364.987L22.2461 372.08C20.1466 374.429 18.3078 376.999 16.7617 379.744C20.1747 379.982 23.4425 381.218 26.1584 383.298C28.8743 385.379 30.9185 388.212 32.0366 391.446Z" fill="#3546AB"/>
<path d="M81.4391 401.538C77.8187 401.538 74.2882 402.666 71.3374 404.763C68.3866 406.861 66.1618 409.825 64.9716 413.244C63.7822 409.824 61.5576 406.86 58.6067 404.762C55.6557 402.664 52.1248 401.536 48.5041 401.536C44.8834 401.536 41.3524 402.664 38.4015 404.762C35.4506 406.86 33.226 409.824 32.0366 413.244C30.5963 409.112 27.656 405.672 23.7986 403.606C19.9412 401.539 15.4482 400.998 11.2103 402.089C11.4536 413.142 15.9082 423.686 23.6639 431.565H73.5694C81.3094 423.702 85.7627 413.186 86.023 402.156C84.5294 401.746 82.9878 401.538 81.4391 401.538Z" fill="#3546AB"/>
<path d="M48.6238 348.26C61.863 348.26 70.5853 340.094 72.0941 338.575H25.1536C26.6624 340.079 35.3847 348.26 48.6238 348.26Z" fill="#30242A"/>
<path d="M32.0366 413.244C33.226 409.824 35.4506 406.86 38.4015 404.762C41.3525 402.664 44.8834 401.536 48.5041 401.536C52.1248 401.536 55.6557 402.664 58.6067 404.762C61.5576 406.86 63.7822 409.824 64.9716 413.244C66.4238 409.068 69.4084 405.6 73.3212 403.541C77.234 401.482 81.7828 400.987 86.0469 402.156C86.2437 394.33 84.3223 386.596 80.4859 379.773C77.0359 379.963 73.7203 381.175 70.9598 383.253C68.1994 385.331 66.1185 388.183 64.9812 391.445C63.7895 388.028 61.5641 385.066 58.6134 382.97C55.6628 380.874 52.1331 379.748 48.5137 379.748C44.8943 379.748 41.3646 380.874 38.4139 382.97C35.4633 385.066 33.2378 388.028 32.0462 391.445C30.9212 388.22 28.8741 385.396 26.1587 383.324C23.4433 381.251 20.1792 380.021 16.7714 379.787C12.9521 386.588 11.0345 394.291 11.2199 402.089C15.4578 400.998 19.9508 401.539 23.8082 403.606C27.6656 405.672 30.6059 409.112 32.0462 413.244H32.0366Z" fill="#3EC1F3"/>
<path d="M52.1013 346.89C53.0592 341.028 57.4132 317.787 68.3628 305.156" stroke="#30242A" stroke-width="4" stroke-miterlimit="10" stroke-linecap="round"/>
<path d="M47.0479 347.058C46.9761 340.4 46.2911 307.709 39.7913 288.205" stroke="#30242A" stroke-width="4" stroke-miterlimit="10" stroke-linecap="round"/>
<path d="M75.8568 324.184C85.4574 319.959 92.4698 314.784 91.5195 312.624C90.5691 310.464 82.0159 312.138 72.4153 316.362C62.8148 320.587 55.8024 325.762 56.7527 327.922C57.7031 330.082 66.2563 328.408 75.8568 324.184Z" fill="#30242A"/>
<path d="M75.8512 264.758C79.3027 260.092 80.7818 255.334 79.1548 254.13C77.5278 252.927 73.4109 255.734 69.9594 260.4C66.5079 265.066 65.0289 269.824 66.6558 271.028C68.2828 272.231 72.3997 269.424 75.8512 264.758Z" fill="#30242A"/>
<path d="M23.8722 327.501C36.3879 325.608 46.2629 322.282 45.9287 320.072C45.5944 317.862 35.1775 317.604 22.6617 319.497C10.146 321.39 0.270973 324.716 0.605233 326.926C0.939494 329.136 11.3565 329.394 23.8722 327.501Z" fill="#30242A"/>
<path d="M15.1284 294.854V294.887C16.9776 295.921 18.3724 297.61 19.0376 299.622C19.7029 301.634 19.5904 303.821 18.7223 305.754C17.8543 307.687 16.2936 309.224 14.348 310.063C12.4025 310.902 10.2132 310.982 8.21185 310.286V310.315C18.7016 315.028 28.7651 315.388 30.681 311.12C32.597 306.852 25.6229 299.567 15.1284 294.854Z" fill="#FF7235"/>
<path d="M46.1427 260.692C43.9106 260.113 41.008 263.49 38.8861 268.715C36.3331 262.369 32.6305 258.12 30.135 258.944C27.6395 259.768 27.1941 265.382 28.9232 272.001C24.1046 269.07 19.765 268.083 18.3137 269.879C16.4648 272.169 20.0284 278.108 26.2744 283.152C28.0514 284.6 29.9633 285.873 31.9839 286.955C32.3283 285.587 33.0091 284.327 33.9644 283.288C34.9196 282.25 36.1192 281.467 37.454 281.01C38.7888 280.554 40.2165 280.437 41.6076 280.673C42.9987 280.908 44.309 281.487 45.4194 282.357C46.3556 280.342 47.1028 278.245 47.6515 276.092C49.668 268.327 48.9926 261.43 46.1427 260.692Z" fill="#FF7235"/>
<path d="M94.8363 295.95C94.1465 293.747 89.7447 293.076 84.1885 294.034C88.2215 288.512 89.8692 283.123 87.8527 281.442C85.8362 279.761 80.8308 282.352 76.1271 287.319C76.0697 281.677 74.6088 277.471 72.3192 277.189C69.4022 276.829 66.2409 282.999 65.2638 290.959C64.9742 293.235 64.9037 295.534 65.053 297.823C66.3968 297.39 67.8276 297.3 69.2152 297.561C70.6027 297.822 71.903 298.425 72.9978 299.317C74.0926 300.208 74.9471 301.36 75.4836 302.666C76.0201 303.972 76.2216 305.391 76.0697 306.795C78.2757 306.515 80.4514 306.034 82.5695 305.358C90.2189 302.977 95.7128 298.757 94.8363 295.95Z" fill="#FF7235"/>
<path d="M73.0616 299.365C71.9663 298.452 70.6576 297.83 69.2574 297.558C67.8572 297.286 66.4109 297.372 65.053 297.809C65.326 301.598 66.284 304.515 67.7258 305.573C69.0717 306.818 72.1851 307.235 76.0601 306.78C76.2111 305.393 76.0163 303.99 75.4931 302.696C74.9699 301.402 74.1346 300.258 73.0616 299.365Z" fill="#30242A"/>
<path d="M37.5401 280.982C36.1858 281.429 34.9663 282.211 33.9949 283.255C33.0235 284.299 32.3318 285.572 31.9839 286.955C35.3368 288.727 38.3161 289.446 39.9925 288.794C41.76 288.315 43.7573 285.887 45.4194 282.357C44.3216 281.495 43.0275 280.918 41.6526 280.679C40.2778 280.439 38.8649 280.543 37.5401 280.982Z" fill="#30242A"/>
<path d="M16.0624 309.074C15.1617 308.572 14.4825 307.75 14.1592 306.771C13.836 305.791 13.8923 304.726 14.317 303.786C14.7417 302.847 15.5038 302.101 16.4525 301.696C17.4011 301.292 18.4671 301.258 19.4393 301.602C19.3268 300.216 18.8747 298.88 18.1228 297.71C17.3709 296.54 16.3425 295.574 15.1284 294.896L8.19751 310.286C9.50748 310.744 10.9097 310.872 12.2811 310.661C13.6524 310.45 14.9509 309.905 16.0624 309.074Z" fill="#F5EBDD"/>
<path d="M14.2998 303.791C13.882 304.731 13.8313 305.793 14.1575 306.768C14.4838 307.743 15.1633 308.561 16.0624 309.06C17.2137 308.204 18.1278 307.069 18.7187 305.762C19.3095 304.454 19.5575 303.018 19.4393 301.588C18.4626 301.24 17.3906 301.274 16.4377 301.682C15.4848 302.091 14.7213 302.844 14.2998 303.791Z" fill="#4856DF"/>
<path d="M330.842 311.522H209.021L211.081 303.351H264.555L284.95 223.59C287.729 212.726 294.045 203.095 302.902 196.218C311.76 189.34 322.655 185.607 333.869 185.607C361.31 185.607 381.389 211.472 374.583 238.056L361.98 287.338C360.212 294.254 356.191 300.385 350.553 304.764C344.915 309.143 337.98 311.52 330.842 311.522Z" fill="#FFB494"/>
<path d="M209.965 387.005V395.656H287.604V387.005H209.965Z" fill="#A15842"/>
<path d="M300.393 426.919L280.199 306.718H217.365L197.171 426.919C197.076 427.491 197.106 428.077 197.26 428.635C197.414 429.194 197.688 429.713 198.063 430.155C198.438 430.597 198.904 430.952 199.43 431.196C199.956 431.44 200.529 431.566 201.109 431.565C202.019 431.565 202.902 431.253 203.612 430.681C204.321 430.11 204.813 429.313 205.008 428.423L231.457 306.718H266.126L292.566 428.423C292.76 429.313 293.252 430.111 293.961 430.682C294.67 431.254 295.554 431.565 296.465 431.565C297.044 431.564 297.615 431.437 298.14 431.193C298.665 430.949 299.13 430.593 299.504 430.151C299.878 429.709 300.151 429.191 300.304 428.633C300.458 428.075 300.488 427.49 300.393 426.919Z" fill="#A15842"/>
<path d="M274.283 387.005V395.656H351.922V387.005H274.283Z" fill="#FFBE21"/>
<path d="M364.711 426.919L344.498 306.718H281.688L261.494 426.919C261.399 427.491 261.429 428.077 261.583 428.635C261.737 429.194 262.011 429.713 262.386 430.155C262.761 430.597 263.227 430.952 263.753 431.196C264.279 431.44 264.852 431.566 265.432 431.565C266.342 431.565 267.225 431.253 267.933 430.682C268.642 430.11 269.133 429.313 269.326 428.423L295.766 306.718H330.439L356.879 428.423C357.073 429.314 357.566 430.112 358.276 430.684C358.987 431.255 359.871 431.567 360.783 431.565C361.362 431.564 361.933 431.437 362.458 431.193C362.983 430.949 363.448 430.593 363.822 430.151C364.196 429.709 364.469 429.191 364.622 428.633C364.776 428.075 364.806 427.49 364.711 426.919Z" fill="#FFBE21"/>
<path d="M301.25 287.338L308.952 257.215H257.907C247.897 257.215 238.172 260.547 230.265 266.686C222.358 272.824 216.719 281.42 214.238 291.117L209.021 311.522H270.106C277.246 311.521 284.182 309.144 289.821 304.765C295.46 300.386 299.481 294.255 301.25 287.338Z" fill="#FFB494"/>
<path d="M212.341 302.551H277.147" stroke="#A15842" stroke-width="4" stroke-linecap="round" stroke-linejoin="round"/>
<path d="M264.785 302.249L276.142 257.847" stroke="#A15842" stroke-width="4" stroke-linecap="round" stroke-linejoin="round"/>
<path d="M368.926 256.185H338.271" stroke="#A15842" stroke-width="4" stroke-linecap="round" stroke-linejoin="round"/>
<path d="M374.674 234.631H335.397" stroke="#A15842" stroke-width="4" stroke-linecap="round" stroke-linejoin="round"/>
<path d="M231.606 224.898C231.606 224.898 193.177 235.364 176.853 243.53C149.939 256.985 150.03 265.865 133.62 315.579C118.469 361.523 116.803 383.791 95.9044 384.673C79.9494 385.343 74.7189 390.564 72.1324 397.72L135.267 427.676C135.991 428.019 136.818 428.071 137.58 427.824C138.341 427.576 138.979 427.047 139.363 426.344C139.754 425.626 139.849 424.784 139.628 423.996C139.407 423.209 138.887 422.539 138.18 422.129L136.853 421.363C142.72 414.255 154.039 399.109 165.324 376.104L172.508 379.457C172.508 379.457 184.114 364.373 185.954 347.264C188.348 325.169 186.912 310.277 197.004 301.631L314.69 224.879L231.606 224.898Z" fill="#FF7235"/>
<path d="M89.7015 388.222C90.9517 385.621 97.897 369.776 101.892 371.692C107.089 374.183 93.6005 390.09 93.6005 390.09L89.7015 388.222Z" fill="#30242A"/>
<path d="M72.1276 397.945L135.263 427.896C135.993 428.245 136.831 428.297 137.6 428.042C138.368 427.786 139.008 427.243 139.385 426.526C139.761 425.809 139.846 424.974 139.62 424.197C139.395 423.419 138.877 422.759 138.175 422.354L136.848 421.588L136.982 421.425L93.5861 400.939C94.2363 399.137 94.6924 397.272 94.9464 395.373C101.441 396.499 114.585 397.711 114.652 392.293C114.724 387.245 100.369 389.271 95.1237 390.698C95.0106 388.758 94.6335 386.842 94.0028 385.003C79.5327 385.999 74.6087 391.077 72.1276 397.945Z" fill="#30242A"/>
<path d="M176.853 243.53C173.83 245.039 171.153 246.49 168.753 247.947L165.07 259.744L179.248 249.757L192.319 260.18L187.501 245.892L202.306 239.109L190.863 237.672C186.092 239.375 181.416 241.33 176.853 243.53Z" fill="#FFB494"/>
<path d="M218.625 237.39L217.667 243.631L223.913 241.231L218.625 237.39Z" fill="#FFB494"/>
<path d="M182.601 268.61L173.476 280.618L160.505 274.377L168.188 287.343L156.18 297.43L171.55 295.51L176.838 313.285L182.122 295.51L198.934 290.705L182.601 283.98V268.61Z" fill="#FFB494"/>
<path d="M131.301 360.297L132.422 357.098L147.75 356.283L135.296 347.805L140.843 334.523L128.298 342.886L125.903 340.3C123.987 346.608 122.292 352.226 120.634 357.165H120.711C120.893 356.623 121.075 356.077 121.257 355.522L131.301 360.297Z" fill="#FFB494"/>
<path d="M131.301 360.297L121.243 355.541C121.061 356.096 120.879 356.642 120.697 357.184C114.618 375.289 109.081 384.342 95.914 384.898C95.2674 384.898 94.6447 384.96 94.0316 385.003C94.6623 386.842 95.0393 388.758 95.1524 390.698C100.421 389.261 114.752 387.245 114.681 392.293C114.604 397.711 101.47 396.499 94.9752 395.373C94.7165 397.272 94.2556 399.138 93.6005 400.939L136.997 421.425C142.898 414.24 154.12 399.171 165.319 376.357L131.301 360.297Z" fill="#EAA58B"/>
<path d="M169.63 323.851L168.193 336.822L154.743 336.343L166.272 344.994L161.961 360.364L173.5 350.272L183.87 357.189C184.157 356.272 184.421 355.345 184.66 354.406L180.685 344.505L186.844 337.756C186.945 336.501 187.041 335.266 187.132 334.063L176.374 335.859L169.63 323.851Z" fill="#FFB494"/>
<path d="M139.669 296.889C138.457 300.635 137.155 304.701 135.718 309.122L148.497 309.903L139.669 296.889Z" fill="#FFB494"/>
<path d="M184.794 413.905C184.996 411.031 185.623 393.74 190.039 394.051C195.787 394.454 189.105 414.207 189.105 414.207L184.794 413.905Z" fill="#30242A"/>
<path d="M291.172 225.602C291.172 225.602 243.135 234.511 216.714 245.556C190.039 256.712 190.298 276.523 195.097 330.337C199.408 378.513 207.11 401.907 191.266 409.11C176.733 415.72 171.685 424.007 172.374 431.584H243.911C244.314 431.584 244.713 431.505 245.086 431.351C245.458 431.196 245.797 430.97 246.082 430.685C246.367 430.4 246.593 430.062 246.747 429.689C246.902 429.317 246.981 428.917 246.981 428.514C246.981 427.7 246.658 426.919 246.082 426.343C245.506 425.767 244.725 425.444 243.911 425.444H242.704C244.96 418.063 248.231 403.655 248.681 379.811H257.552C257.552 379.811 262.112 358.736 257.073 339.94C251.804 320.249 246.986 316.887 244.107 303.437H287.153C320.026 303.437 344.632 273.031 337.48 240.948C335.248 230.923 332.01 225.621 332.01 225.621L291.172 225.602Z" fill="#FF7235"/>
<path d="M261.389 253.718L252.571 264.812L238.838 260.094L246.976 273.414L236.41 287.827L250.339 282.06L258.103 296.372L258.984 280.618L272.434 277.739L260.91 270.531L261.389 253.718Z" fill="#FFB494"/>
<path d="M242.201 339.351L250.344 352.672L239.777 367.084L253.706 361.336L258.869 370.854C259.626 363.458 260 352.518 257.586 342.014L255.938 344.088L242.201 339.351Z" fill="#FFB494"/>
<path d="M206.286 379.792L205.669 372.367L221.264 366.351L206.502 363.291L208.131 347.087L198.551 359.622L198.263 359.502C199.183 367.238 199.988 373.996 200.438 379.844V379.792H206.286Z" fill="#FFB494"/>
<path d="M243.911 425.425H242.704C244.96 418.044 248.231 403.636 248.681 379.792H200.424V379.835C200.462 380.314 200.496 380.793 200.529 381.272C200.529 381.315 200.529 381.363 200.529 381.406C201.53 396.374 199.897 405.13 191.246 409.063C176.714 415.673 171.665 423.959 172.355 431.536H243.911C244.725 431.536 245.506 431.213 246.082 430.637C246.658 430.061 246.981 429.281 246.981 428.466C246.981 427.652 246.658 426.871 246.082 426.295C245.506 425.719 244.725 425.396 243.911 425.396V425.425Z" fill="#EAA58B"/>
<path d="M307.961 226.843L285.894 228.797L288.193 237.668L274.077 245.197L291.661 247.549L297.61 260.726L303.726 247.08L321.612 244.254L306.078 236.255L307.961 226.843Z" fill="#FFB494"/>
<path d="M202.785 289.264L208.054 272.451L223.425 274.846L211.416 264.28L220.038 254.192L204.188 259.94L201.655 255.596C197.579 260.213 195.117 265.947 193.799 273.318L196.501 273.404L202.785 289.264Z" fill="#FFB494"/>
<path d="M243.911 236.523C240.668 237.423 237.44 238.367 234.288 239.339L246.986 247.961L243.911 236.523Z" fill="#FFB494"/>
<path d="M222.96 314.243L216.235 300.314L212.873 315.685L200.385 314.727L211.91 324.814L204.706 341.626L217.212 329.968L227.577 341.919L224.402 323.851L234.968 309.922L222.96 314.243Z" fill="#FFB494"/>
<path d="M194.446 419.806C200.797 418.053 213.193 413.541 210.952 408.612C208.863 404.014 196.745 411.965 192.611 415.505C191.568 413.591 190.235 411.849 188.66 410.342C176.12 416.726 171.718 424.457 172.374 431.565H243.911C244.725 431.565 245.506 431.242 246.082 430.666C246.658 430.09 246.981 429.309 246.981 428.495C246.981 427.681 246.658 426.9 246.082 426.324C245.506 425.748 244.725 425.425 243.911 425.425H195.581C195.402 423.517 195.021 421.634 194.446 419.806Z" fill="#30242A"/>
<path d="M243.911 304.495L231.543 304.323" stroke="#A15842" stroke-width="4" stroke-miterlimit="10" stroke-linecap="round"/>
<path d="M253.107 234.425C240.294 237.691 226.6 241.701 216.225 246.031C194.096 255.299 190.509 270.512 192.659 306.186" stroke="#A15842" stroke-width="4" stroke-miterlimit="10" stroke-linecap="round"/>
<path d="M415.713 231.623H403.949V431.565H415.713V231.623Z" fill="#FFBE21"/>
<path d="M415.713 234.372H403.949" stroke="#A15842" stroke-width="4" stroke-miterlimit="10"/>
<path d="M245.056 81.2742C238.35 80.3162 222.989 87.525 222.481 101.775C221.973 116.025 234.695 120.604 236.731 121.624L266.251 117.04L268.286 84.469L245.056 81.2742Z" fill="#A15842"/>
<path d="M297.207 45.8867C309.879 45.8867 320.151 35.6146 320.151 22.9434C320.151 10.2721 309.879 0 297.207 0C284.536 0 274.264 10.2721 274.264 22.9434C274.264 35.6146 284.536 45.8867 297.207 45.8867Z" fill="#A15842"/>
<path d="M282.325 38.7211C283.724 39.3677 271.946 11.4189 265.934 15.7777C260.278 19.8922 275.222 35.4448 282.325 38.7211Z" fill="#30242A"/>
<path d="M282.977 40.4312C284.26 41.9639 314.312 31.4502 310.154 25.3863C306.179 19.5522 281.693 38.8937 282.977 40.4312Z" fill="#30242A"/>
<path d="M322.871 117.299C322.871 117.299 343.046 100.486 330.056 81.7531C321.789 69.812 299.31 74.5683 299.31 74.5683C299.856 68.011 301.638 49.1198 287.431 38.7402C273.225 28.3606 255.2 33.8259 248.633 42.0165C242.067 50.2071 243.719 65.5107 241.535 76.4363C239.351 87.362 240.807 94.791 247.541 98.2876C253.668 101.468 260.876 99.5473 260.876 99.5473L260.11 111.077C260.11 111.077 246.219 111.599 237.708 114.678C217.198 122.103 181.164 173.019 181.164 173.019C158.589 172.061 137.452 171.103 137.452 171.103L148.502 203.77C148.502 203.77 176.359 212.894 196.534 207.602C217.001 202.242 236.405 173.498 236.405 173.498L243.111 192.71L231.582 224.893H331.977L315.165 195.11C318.072 168.698 322.871 117.299 322.871 117.299Z" fill="#EAA58B"/>
<path d="M290.612 109.879L264.268 157.648L253.49 111.556C248.753 112.035 242.44 112.964 237.756 114.659C217.198 122.103 181.164 173.019 181.164 173.019C158.589 172.061 137.452 171.103 137.452 171.103L148.502 203.77C148.502 203.77 176.359 212.894 196.534 207.602C217.001 202.242 236.405 173.498 236.405 173.498L243.111 192.71L231.582 224.893H331.977L315.165 195.114C318.038 168.694 322.828 117.294 322.828 117.294C318.381 114.586 313.51 112.643 308.42 111.546C302.687 110.253 296.383 111.024 290.612 109.879Z" fill="#3546AB"/>
<path d="M154.183 221.535H237.373L218.457 161.796C217.901 160.036 216.799 158.498 215.31 157.407C213.82 156.316 212.022 155.727 210.176 155.728H139.87C138.504 155.727 137.157 156.048 135.939 156.666C134.72 157.283 133.665 158.18 132.858 159.282C132.051 160.385 131.515 161.662 131.295 163.01C131.074 164.358 131.175 165.739 131.589 167.041L147.223 216.444C147.692 217.921 148.619 219.212 149.871 220.127C151.122 221.042 152.632 221.536 154.183 221.535Z" fill="#30242A"/>
<path d="M166.579 182.752C168.787 179.734 178.802 187.705 179.54 188.361C179.923 187.705 185.139 179.739 188.962 182.752C192.281 185.367 184.986 197.05 183.046 200.029C182.965 200.119 182.865 200.191 182.754 200.241C182.643 200.29 182.523 200.316 182.402 200.316C182.28 200.316 182.16 200.29 182.049 200.241C181.938 200.191 181.839 200.119 181.758 200.029C178.218 197.05 164.663 185.367 166.579 182.752Z" fill="#A15842"/>
<path d="M178.715 184.772C179.551 184.512 179.582 182.227 178.785 179.668C177.989 177.11 176.665 175.247 175.829 175.507C174.993 175.767 174.961 178.053 175.758 180.611C176.555 183.17 177.879 185.033 178.715 184.772Z" fill="#A15842"/>
<path d="M285.678 214.81C285.919 215.583 285.975 216.402 285.841 217.2C285.708 217.998 285.389 218.754 284.91 219.407C284.431 220.059 283.805 220.59 283.083 220.956C282.361 221.323 281.564 221.514 280.754 221.516H154.182C152.632 221.516 151.122 221.023 149.87 220.108C148.619 219.192 147.692 217.902 147.223 216.424L146.706 214.791L285.678 214.81Z" fill="#30242A"/>
<path d="M435.984 221.535H65.1488V233.543H435.984V221.535Z" fill="#FFBE21"/>
<path d="M361.976 287.338L369.678 257.215H324.749C314.74 257.215 305.015 260.548 297.109 266.686C289.203 272.825 283.565 281.42 281.085 291.117L275.864 311.522H330.827C337.967 311.522 344.904 309.145 350.544 304.766C356.184 300.387 360.206 294.255 361.976 287.338Z" fill="#FFB494"/>
<path d="M276.927 303.624L275.15 311.134" stroke="#A15842" stroke-width="4" stroke-linecap="round" stroke-linejoin="round"/>
<path d="M133.447 172.832C127.857 175.625 125.065 180.28 125.065 183.542C125.065 188.303 129.912 189.199 129.912 189.199C129.912 189.199 126.296 194.884 132.585 197.552C132.585 197.552 132.585 203.406 138.443 203.406C138.443 203.406 137.667 207.97 143.779 208.401C149.891 208.833 156.18 205.643 156.712 203.578C157.32 201.14 155.677 199.1 151.242 198.453C151.242 198.453 157.229 195.656 156.28 192.126C155.332 188.595 151.285 188.677 151.285 188.677C151.285 188.677 155.16 186.354 153.09 182.929C151.021 179.504 147.065 180.692 147.065 180.692C147.065 180.692 148.099 178.297 146.289 176.472C144.133 174.317 134.865 177.038 134.865 177.038L133.447 172.832Z" fill="#EAA58A"/>
<path d="M138.486 203.631C143.53 202.421 148.423 200.654 153.076 198.362" stroke="#A15842" stroke-width="4" stroke-miterlimit="10" stroke-linecap="round"/>
<path d="M132.571 197.524C139.564 195.606 146.241 192.681 152.391 188.84" stroke="#A15842" stroke-width="4" stroke-miterlimit="10" stroke-linecap="round"/>
<path d="M129.433 189.879C135.914 187.962 142.036 184.996 147.558 181.099" stroke="#A15842" stroke-width="4" stroke-miterlimit="10" stroke-linecap="round"/>
<path d="M330.08 81.7531C321.813 69.812 299.334 74.5683 299.334 74.5683C299.88 68.011 301.662 49.1198 287.455 38.7402C273.249 28.3606 255.224 33.8259 248.657 42.0165C245.985 45.3694 244.677 49.8814 243.916 54.8054C248.274 55.5382 254.669 54.039 254.669 54.039C263.41 63.8726 271.242 65.4341 271.242 65.4341C277.358 59.3174 288.087 59.5186 289.831 68.7869C291.642 78.4098 276.271 82.735 276.271 82.735C276.271 82.735 274.834 100.026 282.498 106.272C284.85 108.137 287.631 109.383 290.588 109.898C296.336 111.043 302.663 110.272 308.44 111.556C313.53 112.653 318.4 114.596 322.847 117.303C324.602 115.757 326.206 114.047 327.637 112.197C332.676 105.808 338.702 94.2067 330.08 81.7531Z" fill="#A15842"/>
<path d="M263.789 50.533C260.915 52.9279 257.562 54.3648 253.701 55.3228" stroke="#EAA58B" stroke-width="4" stroke-miterlimit="10" stroke-linecap="round"/>
<path d="M260.718 100.625C262.949 99.8811 265.1 98.9184 267.141 97.7512" stroke="#A15842" stroke-width="4" stroke-miterlimit="10" stroke-linecap="round"/>
<path d="M276.86 73.074L281.228 70.3438" stroke="#A15842" stroke-width="4" stroke-miterlimit="10" stroke-linecap="round"/>
<path d="M251.795 85.8963C252.7 86.4567 256.106 86.8926 257.456 84.2917" stroke="#A15842" stroke-width="4" stroke-miterlimit="10" stroke-linecap="round"/>
<path d="M260.694 73.6056C261.599 73.6056 262.333 72.8722 262.333 71.9675C262.333 71.0628 261.599 70.3293 260.694 70.3293C259.79 70.3293 259.056 71.0628 259.056 71.9675C259.056 72.8722 259.79 73.6056 260.694 73.6056Z" fill="#30242A"/>
<path d="M247.115 71.4359C248.02 71.4359 248.753 70.7025 248.753 69.7978C248.753 68.8931 248.02 68.1597 247.115 68.1597C246.21 68.1597 245.477 68.8931 245.477 69.7978C245.477 70.7025 246.21 71.4359 247.115 71.4359Z" fill="#30242A"/>
<path d="M251.728 76.125C251.402 77.1548 251.119 78.2757 251.306 78.6493C251.563 79.1227 251.953 79.5106 252.427 79.7653" stroke="#A15842" stroke-width="4" stroke-miterlimit="10" stroke-linecap="round"/>
<path d="M278.915 89.1247C282.084 89.1247 284.653 86.5556 284.653 83.3864C284.653 80.2173 282.084 77.6482 278.915 77.6482C275.746 77.6482 273.177 80.2173 273.177 83.3864C273.177 86.5556 275.746 89.1247 278.915 89.1247Z" fill="#F5EBDD"/>
<path d="M251.31 70.7186C252.303 65.6161 249.384 60.7553 244.79 59.8616C240.197 58.9678 235.668 62.3797 234.676 67.4821C233.683 72.5846 236.602 77.4455 241.195 78.3392C245.789 79.2329 250.317 75.821 251.31 70.7186Z" stroke="#30242A" stroke-width="4" stroke-miterlimit="10" stroke-linecap="round"/>
<path d="M272.122 73.2706C273.115 68.1681 270.196 63.3073 265.602 62.4136C261.009 61.5198 256.48 64.9317 255.488 70.0342C254.495 75.1366 257.414 79.9975 262.007 80.8912C266.601 81.7849 271.129 78.3731 272.122 73.2706Z" stroke="#30242A" stroke-width="4" stroke-miterlimit="10" stroke-linecap="round"/>
<path d="M251.704 69.9463L255.014 70.3007" stroke="#30242A" stroke-width="4" stroke-miterlimit="10" stroke-linecap="round"/>
<path d="M300.431 75.2007L299.478 81.3317" stroke="#30242A" stroke-width="4" stroke-miterlimit="10" stroke-linecap="round"/>
<path d="M231.127 161.011L235.763 174.504" stroke="#30242A" stroke-width="4" stroke-linecap="round" stroke-linejoin="round"/>
<path d="M255.622 191.752H243.432" stroke="#30242A" stroke-width="4" stroke-linecap="round" stroke-linejoin="round"/>
<path d="M265.23 157.169L269.072 175.902V193.194" stroke="#30242A" stroke-width="4" stroke-linecap="round" stroke-linejoin="round"/>
<path d="M239.681 114.243L246.976 130.748L238.331 129.791L269.072 175.902" stroke="#30242A" stroke-width="4" stroke-linecap="round" stroke-linejoin="round"/>
<path d="M310.758 112.279L298.376 129.79L309.905 128.828L267.63 166.294" stroke="#30242A" stroke-width="4" stroke-linecap="round" stroke-linejoin="round"/>
<path d="M317.195 170.998L307.985 158.132" stroke="#30242A" stroke-width="4" stroke-linecap="round" stroke-linejoin="round"/>
<path d="M327.853 218.417C322.838 216.745 313.838 213.517 308.411 210.274" stroke="#30242A" stroke-width="4" stroke-linecap="round" stroke-linejoin="round"/>
<path d="M189.522 99.2315C194.725 99.2315 198.944 95.0132 198.944 89.8098C198.944 84.6064 194.725 80.3882 189.522 80.3882C184.319 80.3882 180.1 84.6064 180.1 89.8098C180.1 95.0132 184.319 99.2315 189.522 99.2315Z" fill="#FFB494"/>
<path d="M161.364 52.3147L155.878 45.7004C155.034 44.6823 153.524 44.5414 152.506 45.3858L152.388 45.4836C151.37 46.328 151.229 47.8378 152.073 48.8559L157.559 55.4702C158.403 56.4883 159.913 56.6292 160.931 55.7848L161.049 55.687C162.067 54.8426 162.208 53.3328 161.364 52.3147Z" fill="#3546AB"/>
<path d="M171.23 60.3522L165.712 53.6943L66.5283 135.936C65.6633 136.654 65.1189 137.686 65.0147 138.805C64.9105 139.924 65.2551 141.039 65.9727 141.904L66.0828 142.038C66.4378 142.466 66.8737 142.82 67.3656 143.08C67.8574 143.34 68.3956 143.5 68.9494 143.551C69.5032 143.603 70.0617 143.545 70.5931 143.381C71.1244 143.216 71.6182 142.949 72.0462 142.594L103.056 116.872V207.128H111.711V109.688L171.23 60.3522Z" fill="#3EC1F3"/>
<path d="M155.246 62.2681L158.01 65.621C158.972 66.7842 159.704 68.1206 160.165 69.5582" stroke="#3546AB" stroke-width="4" stroke-miterlimit="10"/>
<path d="M107.381 118.87C113.616 118.87 118.671 113.815 118.671 107.58C118.671 101.345 113.616 96.2903 107.381 96.2903C101.146 96.2903 96.0912 101.345 96.0912 107.58C96.0912 113.815 101.146 118.87 107.381 118.87Z" fill="#3546AB"/>
<path d="M107.381 111.92C109.778 111.92 111.72 109.977 111.72 107.58C111.72 105.183 109.778 103.24 107.381 103.24C104.984 103.24 103.041 105.183 103.041 107.58C103.041 109.977 104.984 111.92 107.381 111.92Z" fill="#3EC1F3"/>
<path d="M197.258 84.4595L182.816 96.3958" stroke="#A15842" stroke-width="4" stroke-miterlimit="10"/>
<path d="M178.548 59.1451C175.512 58.7884 172.729 57.2754 170.779 54.9205L166.947 50.2887C165.593 48.6582 163.647 47.6318 161.536 47.4352C159.426 47.2385 157.324 47.8875 155.691 49.2397C154.884 49.9096 154.216 50.7319 153.726 51.6599C153.236 52.5879 152.934 53.6033 152.836 54.6481C152.739 55.6929 152.848 56.7467 153.158 57.7493C153.468 58.7518 153.972 59.6835 154.642 60.4911L158.474 65.1372C160.416 67.4854 161.381 70.4895 161.171 73.5291L160.213 87.5346C159.738 94.3873 161.478 101.211 165.175 107.001L166.401 108.916L212.35 70.8036L210.703 69.2565C205.702 64.5512 199.321 61.5775 192.501 60.7737L178.548 59.1451Z" fill="#3EC1F3"/>
<path d="M111.711 207.127H103.056L90.262 210.614C87.8665 211.268 85.7525 212.691 84.2456 214.665C82.7387 216.638 81.9225 219.052 81.9229 221.535H132.839C132.839 219.052 132.022 216.637 130.514 214.663C129.006 212.69 126.891 211.267 124.495 210.614L111.711 207.127Z" fill="#3EC1F3"/>
<path d="M203.633 64.0259L161.583 98.781" stroke="#3546AB" stroke-width="4" stroke-miterlimit="10" stroke-linecap="round"/>
<path d="M102.845 206.136H111.711" stroke="#3546AB" stroke-width="4" stroke-miterlimit="10" stroke-linecap="round"/>
<path d="M83.6041 215.548H130.87" stroke="#3546AB" stroke-width="4" stroke-miterlimit="10" stroke-linecap="round"/>
<path d="M356.022 345.104C356.98 336.961 356.501 318.683 345.934 304.754C335.368 290.825 349.766 296.611 354.077 300.443C360.975 306.574 367.048 312.451 372.331 332.147L356.022 345.104Z" fill="#30242A"/>
<path d="M483.609 431.565H540V429.721C539.999 427.122 538.965 424.629 537.127 422.791C535.288 420.953 532.795 419.921 530.195 419.921H483.317L483.609 431.565Z" fill="#A15842"/>
<path d="M346.049 377.727L357.943 431.565H380.043V428.212C380.043 426.051 379.186 423.977 377.659 422.446C376.133 420.915 374.062 420.052 371.9 420.046C371.9 420.046 382.946 411.764 389.671 403.597C389.671 403.597 401.2 417.646 417.533 415.242L418.716 420.989C419.332 423.973 420.956 426.653 423.316 428.579C425.675 430.505 428.627 431.56 431.673 431.565H485.238C508.995 431.565 520.682 427.939 521.353 414.413C521.374 413.897 521.29 413.382 521.107 412.899C520.923 412.417 520.644 411.976 520.286 411.604C519.929 411.231 519.499 410.935 519.024 410.733C518.549 410.531 518.038 410.427 517.521 410.428H502.567C501.951 410.428 501.342 410.291 500.785 410.024C500.229 409.758 499.74 409.371 499.353 408.89L492.988 400.992C491.101 398.654 488.583 396.908 485.732 395.959C482.882 395.011 479.819 394.901 476.908 395.641L464.105 398.913C464.105 398.913 441.42 366.313 420.872 343.672C401.233 322.055 364.294 319.722 349.742 347.877C345.064 357.091 343.758 367.651 346.049 377.727Z" fill="#A15842"/>
<path d="M479.954 431.565V429.721C479.954 428.434 479.701 427.159 479.208 425.97C478.715 424.78 477.993 423.7 477.082 422.79C476.172 421.88 475.091 421.158 473.901 420.666C472.712 420.174 471.437 419.921 470.15 419.921H463.621" stroke="#30242A" stroke-width="4" stroke-miterlimit="10"/>
<path d="M390.562 403.981C393.914 399.991 405.357 385.3 404.538 370.931C403.662 355.555 394.451 347.393 394.451 347.393" stroke="#30242A" stroke-width="4" stroke-miterlimit="10" stroke-linecap="round"/>
<path d="M414.626 394.942C414.626 394.942 415.239 406.308 416.47 414.796" stroke="#30242A" stroke-width="4" stroke-miterlimit="10" stroke-linecap="round"/>
<path d="M368.514 426.646V431.086" stroke="#30242A" stroke-width="4" stroke-miterlimit="10" stroke-linecap="round"/>
<path d="M373.797 426.646V431.086" stroke="#30242A" stroke-width="4" stroke-miterlimit="10" stroke-linecap="round"/>
<path d="M469.388 426.646V431.086" stroke="#30242A" stroke-width="4" stroke-miterlimit="10" stroke-linecap="round"/>
<path d="M474.671 426.646V431.086" stroke="#30242A" stroke-width="4" stroke-miterlimit="10" stroke-linecap="round"/>
<path d="M488.84 413.675C490.033 413.675 491 412.708 491 411.515C491 410.322 490.033 409.355 488.84 409.355C487.647 409.355 486.679 410.322 486.679 411.515C486.679 412.708 487.647 413.675 488.84 413.675Z" fill="#30242A"/>
<path d="M477.052 395.598V395.541L464.086 398.894L476.889 395.622L477.052 395.598Z" fill="#30242A"/>
<path d="M445.142 420.137C441.387 422.053 436.079 425.803 436.52 431.484H457.375L461.758 424.572C462.474 423.442 463.464 422.51 464.637 421.865C465.809 421.219 467.125 420.88 468.464 420.879H469.857L477.004 395.742L476.899 395.632L464.095 398.903L451.838 414.604C450.034 416.912 447.749 418.8 445.142 420.137Z" fill="#30242A"/>
<path d="M414.683 355.407C414.683 355.407 408.883 375.486 427.616 383.068C437.114 386.9 445.003 383.993 450.478 380.194C442.206 369.178 431.261 355.153 420.867 343.696C418.261 340.828 415.332 338.271 412.14 336.075C409.304 339.936 406.2 349.487 414.683 355.407Z" fill="#EAA58B"/>
<path d="M366.833 369.968C371.211 369.968 374.76 366.419 374.76 362.041C374.76 357.663 371.211 354.114 366.833 354.114C362.455 354.114 358.905 357.663 358.905 362.041C358.905 366.419 362.455 369.968 366.833 369.968Z" fill="#EAA58B"/>
<path d="M517.54 410.428H514.666C514.508 411.229 514.529 412.056 514.728 412.848C514.927 413.64 515.298 414.379 515.816 415.011C516.334 415.642 516.985 416.152 517.723 416.502C518.461 416.853 519.267 417.036 520.084 417.038C520.421 417.038 520.758 417.006 521.09 416.942C521.236 416.106 521.33 415.261 521.372 414.413C521.393 413.897 521.309 413.382 521.126 412.899C520.942 412.417 520.663 411.976 520.306 411.604C519.948 411.231 519.518 410.935 519.043 410.733C518.568 410.531 518.057 410.427 517.54 410.428Z" fill="#30242A"/>
<path d="M528.95 426.646V430.976" stroke="#30242A" stroke-width="4" stroke-miterlimit="10" stroke-linecap="round"/>
<path d="M534.233 426.646V430.976" stroke="#30242A" stroke-width="4" stroke-miterlimit="10" stroke-linecap="round"/>
<path d="M499.962 430.991C511.706 429.807 518.709 426.627 521.253 419.859" stroke="#30242A" stroke-width="4" stroke-linecap="round" stroke-linejoin="round"/>
<path d="M308.463 178.982C302.553 178.453 296.609 178.387 290.688 178.786C282.22 179.481 270.834 181.698 266.26 183.911C261.686 186.124 244.169 193.936 248.887 196.556C253.198 198.951 262.241 195.349 262.241 195.349C262.241 195.349 253.217 203.645 251.665 207.118C250.114 210.591 255.243 212.54 255.243 212.54C256.594 218.47 262.639 215.922 262.639 215.922C266.447 224.021 287.019 206.471 287.019 206.471C291.914 206.98 296.856 206.772 301.691 205.853C301.691 205.853 304.296 207.314 308.478 209.345L308.463 178.982Z" fill="#EAA58A"/>
<path d="M359.859 219.615C398.288 201.36 342.582 133.158 322.871 117.299L311.826 161.973L325.755 181.186C319.653 180.132 313.819 179.409 308.464 178.982V209.345C320.658 215.275 346.284 226.081 359.859 219.615Z" fill="#3546AB"/>
<path d="M260.402 195.852C263.813 193.031 269.474 188.471 273.699 185.722" stroke="#A15842" stroke-width="4" stroke-miterlimit="10" stroke-linecap="round"/>
<path d="M278.355 192.461C268.54 198.817 259.598 207.309 255.172 211.754" stroke="#A15842" stroke-width="4" stroke-miterlimit="10" stroke-linecap="round"/>
<path d="M282.709 199.65C276.003 204.253 268.219 211.232 263.137 216.022" stroke="#A15842" stroke-width="4" stroke-miterlimit="10" stroke-linecap="round"/>
<path d="M398 197.069C398.726 197.07 399.423 197.359 399.936 197.873C400.45 198.386 400.739 199.082 400.74 199.808V200.216C400.739 200.942 400.45 201.638 399.936 202.152C399.423 202.665 398.726 202.954 398 202.955H383.884V197.069H398ZM398 193.237H380.57C380.502 193.237 380.434 193.25 380.371 193.277C380.308 193.303 380.251 193.341 380.202 193.39C380.154 193.439 380.116 193.496 380.091 193.559C380.065 193.623 380.052 193.691 380.053 193.759V206.284C380.053 206.422 380.107 206.553 380.204 206.65C380.301 206.747 380.433 206.802 380.57 206.802H398C398.864 206.802 399.72 206.631 400.518 206.3C401.317 205.969 402.042 205.483 402.652 204.872C403.263 204.26 403.746 203.534 404.076 202.735C404.405 201.936 404.574 201.08 404.572 200.216V199.794C404.572 198.051 403.879 196.38 402.647 195.147C401.415 193.915 399.743 193.222 398 193.222V193.237Z" fill="#3EC1F3"/>
<path d="M376.925 191.173C362.651 191.173 356.055 179.797 356.055 179.797L365.635 221.535H388.186L397.765 179.797C395.541 183.304 392.461 186.188 388.815 188.178C385.17 190.168 381.078 191.198 376.925 191.173Z" fill="#3EC1F3"/>
<path d="M376.925 191.173C381.083 191.203 385.18 190.175 388.831 188.185C392.482 186.195 395.567 183.308 397.794 179.797H356.055C356.055 179.797 362.651 191.173 376.925 191.173Z" fill="#30242A"/>
</svg>
