<svg width="539" height="435" viewBox="0 0 539 435" fill="none" xmlns="http://www.w3.org/2000/svg">
<path d="M413.902 77.2526H291.603C289.335 77.2552 287.161 78.158 285.558 79.7625C283.956 81.3671 283.055 83.5422 283.055 85.8101V160.921H422.445V85.8101C422.444 83.5435 421.544 81.3699 419.942 79.7657C418.341 78.1616 416.169 77.2578 413.902 77.2526Z" fill="#F5EBDD"/>
<path d="M349.763 64.8419C350.543 64.8432 351.291 65.1536 351.842 65.705C352.394 66.2565 352.704 67.0041 352.705 67.784V115.122C352.704 115.902 352.394 116.649 351.842 117.201C351.291 117.752 350.543 118.062 349.763 118.064H301.923C301.144 118.061 300.398 117.75 299.847 117.199C299.297 116.648 298.987 115.901 298.986 115.122V67.779C298.988 67.0008 299.299 66.2553 299.849 65.705C300.399 65.1548 301.145 64.8445 301.923 64.8419H349.763ZM349.763 62.8506H301.923C301.275 62.8499 300.633 62.9771 300.033 63.2247C299.434 63.4723 298.89 63.8356 298.431 64.2938C297.973 64.752 297.609 65.296 297.36 65.8949C297.112 66.4938 296.984 67.1357 296.984 67.784V115.122C296.986 116.431 297.507 117.685 298.433 118.61C299.359 119.535 300.614 120.055 301.923 120.055H349.763C351.072 120.055 352.327 119.535 353.252 118.61C354.177 117.685 354.697 116.43 354.697 115.122V67.779C354.695 66.4714 354.175 65.2179 353.25 64.2938C352.325 63.3697 351.071 62.8506 349.763 62.8506Z" fill="#FFB494"/>
<path d="M425.477 119.871C426.257 119.872 427.004 120.183 427.556 120.734C428.107 121.286 428.418 122.033 428.419 122.813V170.156C428.418 170.936 428.107 171.683 427.556 172.235C427.004 172.786 426.257 173.097 425.477 173.098H377.88C377.1 173.097 376.353 172.786 375.801 172.235C375.25 171.683 374.939 170.936 374.938 170.156V122.813C374.939 122.033 375.25 121.286 375.801 120.734C376.353 120.183 377.1 119.872 377.88 119.871H425.477ZM425.477 117.88H377.88C376.572 117.88 375.317 118.399 374.392 119.325C373.467 120.25 372.947 121.505 372.947 122.813V170.156C372.947 171.464 373.467 172.719 374.392 173.644C375.317 174.569 376.572 175.089 377.88 175.089H425.477C426.785 175.089 428.04 174.569 428.965 173.644C429.89 172.719 430.41 171.464 430.41 170.156V122.813C430.41 121.505 429.89 120.25 428.965 119.325C428.04 118.399 426.785 117.88 425.477 117.88Z" fill="#FFB494"/>
<path d="M303.591 131.644C304.37 131.646 305.118 131.956 305.669 132.508C306.221 133.059 306.531 133.807 306.533 134.586V164.953C306.531 165.733 306.221 166.481 305.669 167.032C305.118 167.584 304.37 167.894 303.591 167.896H276.539C275.759 167.894 275.012 167.584 274.46 167.032C273.909 166.481 273.598 165.733 273.597 164.953V134.586C273.598 133.807 273.909 133.059 274.46 132.508C275.012 131.956 275.759 131.646 276.539 131.644H303.591ZM303.591 129.653H276.539C275.891 129.653 275.25 129.781 274.651 130.029C274.053 130.277 273.509 130.64 273.051 131.098C272.592 131.556 272.229 132.1 271.981 132.699C271.733 133.297 271.606 133.939 271.606 134.586V164.953C271.606 166.262 272.125 167.517 273.051 168.442C273.976 169.367 275.231 169.887 276.539 169.887H303.591C304.899 169.887 306.154 169.367 307.079 168.442C308.004 167.517 308.524 166.262 308.524 164.953V134.586C308.524 133.939 308.396 133.297 308.148 132.699C307.9 132.1 307.537 131.556 307.079 131.098C306.621 130.64 306.077 130.277 305.478 130.029C304.88 129.781 304.238 129.653 303.591 129.653Z" fill="#FFB494"/>
<path d="M347.468 69.5613H304.198V99.8486H347.468V69.5613Z" fill="#FFB494"/>
<path d="M373.753 89.6333H331.762C325.568 89.6333 320.546 94.6548 320.546 100.849V137.071C320.546 143.265 325.568 148.286 331.762 148.286H373.753C379.948 148.286 384.969 143.265 384.969 137.071V100.849C384.969 94.6548 379.948 89.6333 373.753 89.6333Z" fill="#3EC1F3"/>
<path d="M312.337 106.29C311.903 105.857 311.315 105.614 310.702 105.614C310.089 105.614 309.501 105.857 309.067 106.29L308.569 106.788L308.071 106.29C307.631 105.887 307.053 105.669 306.456 105.682C305.86 105.695 305.291 105.937 304.869 106.359C304.447 106.781 304.205 107.35 304.192 107.946C304.179 108.543 304.397 109.121 304.8 109.561L305.298 110.059L308.569 113.33L311.834 110.059L312.332 109.561C312.766 109.128 313.01 108.54 313.011 107.927C313.012 107.314 312.77 106.725 312.337 106.29Z" fill="#FFB494"/>
<path d="M356.474 106.698H340.862C338.138 106.698 335.929 108.907 335.929 111.632V126.283C335.929 129.007 338.138 131.216 340.862 131.216H356.474C359.199 131.216 361.407 129.007 361.407 126.283V111.632C361.407 108.907 359.199 106.698 356.474 106.698Z" fill="#3546AB"/>
<path d="M357.694 120.976L366.719 128.17C367.066 128.446 367.483 128.619 367.924 128.669C368.365 128.719 368.81 128.643 369.21 128.45C369.609 128.258 369.946 127.957 370.182 127.581C370.418 127.206 370.543 126.771 370.542 126.328V111.936C370.543 111.492 370.418 111.058 370.182 110.682C369.946 110.307 369.609 110.006 369.21 109.813C368.81 109.621 368.365 109.545 367.924 109.595C367.483 109.644 367.066 109.817 366.719 110.094L357.694 117.292C357.417 117.513 357.193 117.793 357.039 118.112C356.886 118.431 356.806 118.78 356.806 119.134C356.806 119.488 356.886 119.838 357.039 120.157C357.193 120.475 357.417 120.756 357.694 120.976Z" fill="#3546AB"/>
<path d="M420.742 62.8506H284.768C280.489 62.8493 276.384 64.5469 273.356 67.5703C270.328 70.5938 268.624 74.6958 268.619 78.975V173.606C268.619 177.887 270.32 181.994 273.347 185.021C276.375 188.049 280.481 189.75 284.763 189.75H420.738C425.019 189.75 429.126 188.049 432.153 185.021C435.181 181.994 436.882 177.887 436.882 173.606V78.975C436.877 74.6976 435.174 70.5971 432.148 67.5739C429.122 64.5507 425.02 62.8519 420.742 62.8506ZM422.445 160.921H283.055V85.81C283.055 84.6863 283.277 83.5735 283.707 82.5352C284.137 81.497 284.767 80.5536 285.562 79.759C286.357 78.9643 287.3 78.334 288.338 77.9039C289.376 77.4739 290.489 77.2525 291.613 77.2525H413.912C416.182 77.2525 418.36 78.154 419.965 79.7587C421.571 81.3634 422.474 83.54 422.475 85.81L422.445 160.921Z" fill="#3546AB"/>
<path d="M339.772 169.075H365.733C368.284 169.075 370.731 170.089 372.534 171.892C374.338 173.696 375.351 176.142 375.351 178.693V208.02C375.35 210.57 374.336 213.015 372.533 214.817C370.729 216.62 368.283 217.633 365.733 217.633H316.698C315.806 217.633 314.95 217.278 314.319 216.647C313.687 216.016 313.333 215.16 313.333 214.267C313.333 213.375 313.687 212.519 314.319 211.888C314.95 211.257 315.806 210.902 316.698 210.902H330.139V178.693C330.139 177.429 330.389 176.177 330.873 175.009C331.357 173.841 332.067 172.78 332.962 171.887C333.856 170.994 334.918 170.286 336.087 169.803C337.256 169.321 338.508 169.073 339.772 169.075Z" fill="#3546AB"/>
<path d="M352.755 181.337C356.074 181.337 358.764 178.647 358.764 175.328C358.764 172.01 356.074 169.319 352.755 169.319C349.437 169.319 346.747 172.01 346.747 175.328C346.747 178.647 349.437 181.337 352.755 181.337Z" fill="#3EC1F3"/>
<path d="M352.755 71.9606C353.817 71.9606 354.677 71.1003 354.677 70.039C354.677 68.9778 353.817 68.1174 352.755 68.1174C351.694 68.1174 350.834 68.9778 350.834 70.039C350.834 71.1003 351.694 71.9606 352.755 71.9606Z" fill="#30242A"/>
<path d="M375.351 190.711H330.05" stroke="#30242A" stroke-width="4" stroke-miterlimit="10"/>
<path d="M213.674 217.633H448.561C451.201 217.633 453.734 218.682 455.601 220.549C457.468 222.416 458.517 224.949 458.517 227.589V433.01H203.718V227.589C203.718 224.949 204.767 222.416 206.634 220.549C208.501 218.682 211.034 217.633 213.674 217.633Z" fill="#FFB494"/>
<path d="M365.908 241.259V276.216H227.344V241.259H365.908ZM367.899 239.268H225.353V278.208H367.899V239.268Z" fill="#A15842"/>
<path d="M296.626 264.747C299.945 264.747 302.635 262.056 302.635 258.738C302.635 255.419 299.945 252.729 296.626 252.729C293.308 252.729 290.617 255.419 290.617 258.738C290.617 262.056 293.308 264.747 296.626 264.747Z" fill="#A15842"/>
<path d="M365.908 301.834V409.388H227.344V301.834H365.908ZM367.899 299.843H225.353V411.379H367.899V299.843Z" fill="#A15842"/>
<path d="M275.952 361.617C279.27 361.617 281.96 358.927 281.96 355.609C281.96 352.29 279.27 349.6 275.952 349.6C272.633 349.6 269.943 352.29 269.943 355.609C269.943 358.927 272.633 361.617 275.952 361.617Z" fill="#A15842"/>
<path d="M317.3 361.617C320.619 361.617 323.309 358.927 323.309 355.609C323.309 352.29 320.619 349.6 317.3 349.6C313.982 349.6 311.292 352.29 311.292 355.609C311.292 358.927 313.982 361.617 317.3 361.617Z" fill="#A15842"/>
<path d="M296.984 300.804V410.419" stroke="#A15842" stroke-width="4" stroke-miterlimit="10"/>
<path d="M436.887 239.268H389.534V411.379H436.887V239.268Z" fill="#A15842"/>
<path d="M436.887 325.321H389.29" stroke="#FFB494" stroke-width="4" stroke-miterlimit="10"/>
<path d="M27.0217 217.633H194.125C196.766 217.633 199.298 218.682 201.165 220.549C203.032 222.416 204.081 224.949 204.081 227.589V433.01H17.0653V227.589C17.0653 224.949 18.1142 222.416 19.9814 220.549C21.8486 218.682 24.3811 217.633 27.0217 217.633Z" fill="#3EC1F3"/>
<path d="M175.477 278.208H45.67V411.379H175.477V278.208Z" fill="#30242A"/>
<path d="M175.477 411.379H45.67L0 318.113H129.802L175.477 411.379Z" fill="#3546AB"/>
<path d="M90.8621 217.633H45.67L50.4789 207.537H86.0532L90.8621 217.633Z" fill="#30242A"/>
<path d="M175.477 217.633H130.284L135.093 207.537H170.668L175.477 217.633Z" fill="#30242A"/>
<path d="M54.566 257.055C59.4792 257.055 63.4621 253.072 63.4621 248.159C63.4621 243.246 59.4792 239.263 54.566 239.263C49.6529 239.263 45.67 243.246 45.67 248.159C45.67 253.072 49.6529 257.055 54.566 257.055Z" fill="#F5EBDD"/>
<path d="M44.7092 248.159H51.9226" stroke="#30242A" stroke-width="4" stroke-miterlimit="10" stroke-linecap="round"/>
<path d="M91.9025 257.055C96.8157 257.055 100.799 253.072 100.799 248.159C100.799 243.246 96.8157 239.263 91.9025 239.263C86.9894 239.263 83.0065 243.246 83.0065 248.159C83.0065 253.072 86.9894 257.055 91.9025 257.055Z" fill="#F5EBDD"/>
<path d="M91.9025 238.307V245.516" stroke="#30242A" stroke-width="4" stroke-miterlimit="10" stroke-linecap="round"/>
<path d="M129.244 257.055C134.157 257.055 138.14 253.072 138.14 248.159C138.14 243.246 134.157 239.263 129.244 239.263C124.331 239.263 120.348 243.246 120.348 248.159C120.348 253.072 124.331 257.055 129.244 257.055Z" fill="#F5EBDD"/>
<path d="M129.244 238.307V245.516" stroke="#30242A" stroke-width="4" stroke-miterlimit="10" stroke-linecap="round"/>
<path d="M166.581 257.055C171.494 257.055 175.477 253.072 175.477 248.159C175.477 243.246 171.494 239.263 166.581 239.263C161.667 239.263 157.684 243.246 157.684 248.159C157.684 253.072 161.667 257.055 166.581 257.055Z" fill="#F5EBDD"/>
<path d="M166.581 238.307V245.516" stroke="#30242A" stroke-width="4" stroke-miterlimit="10" stroke-linecap="round"/>
<path d="M110.69 335.9H42.9071C41.1805 335.9 39.7808 337.299 39.7808 339.024C39.7808 340.749 41.1805 342.148 42.9071 342.148H110.69C112.417 342.148 113.817 340.749 113.817 339.024C113.817 337.299 112.417 335.9 110.69 335.9Z" fill="#30242A"/>
<path d="M205.162 25.8128C196.295 31.5129 202.279 43.5999 210.448 44.0779C213.583 51.3937 213.926 59.6047 211.414 67.1568H223.86L223.904 61.9147C235.285 64.7473 239.476 60.2769 241.682 56.2396C244.171 51.6596 243.434 47.3734 242.583 41.8028C242.583 41.8028 246.65 40.1849 246.341 37.7306C246.092 35.7394 241.756 35.0076 241.756 35.0076C241.692 34.1314 241.647 33.2254 241.622 32.2845C241.578 29.7872 241.395 27.2942 241.074 24.8172C231.516 29.9099 219.613 32.5533 219.613 32.5533C219.613 32.5533 211.892 21.4818 205.162 25.8128Z" fill="#A15842"/>
<path d="M353.313 206.984C358.525 208.976 362.368 205.615 361.407 203.689C360.78 202.434 342.744 188.904 324.131 175.154L302.809 201.742C307.703 203.619 310.928 204.68 310.928 204.68C310.928 204.68 316.215 212.849 323.912 217.658C323.912 217.658 332.081 237.366 336.407 236.888C339.314 236.565 335.446 225.349 334.485 220.54C334.485 220.54 344.103 236.888 350.351 236.888C351.794 236.888 353.124 235.893 353.233 233.523C353.233 233.523 356.404 234.394 357.564 232.08C358.062 231.119 358.062 229.675 358.062 228.714C358.062 228.714 360.551 229.406 361.91 227.753C364.2 224.986 359.182 215.836 353.313 206.984Z" fill="#A15842"/>
<path d="M152.761 122.445C152.509 122.226 152.225 121.987 151.91 121.728C152.189 121.967 152.467 122.206 152.761 122.445Z" fill="#FF7235"/>
<path d="M283.055 145.041C283.055 145.041 260.873 93.9892 251.807 82.0615C242.662 70.0391 223.815 70.6962 223.815 70.6962L223.845 67.1567H211.399C211.399 67.1567 224.84 94.0788 199.377 105.618C189.764 136.866 159.955 128.692 152.746 122.445C149.859 127.731 135.437 151.288 143.128 169.075C149.859 183.014 173.898 180.132 173.898 180.132L178.707 170.036H239.775H220.305L235.932 135.926L241.239 148.884C241.239 148.884 247.984 166.173 262.391 179.654C272.681 189.282 291.912 197.531 302.829 201.717L324.151 175.154C303.924 160.224 283.055 145.041 283.055 145.041Z" fill="#FF7235"/>
<path d="M175.641 148.217L165.739 152.732" stroke="#30242A" stroke-width="4" stroke-linecap="round" stroke-linejoin="round"/>
<path d="M179.2 171.963L172.744 128.478" stroke="#30242A" stroke-width="4" stroke-linecap="round" stroke-linejoin="round"/>
<path d="M220.305 170.016L239.775 170.036L241.219 148.884L235.932 135.906L220.305 170.016Z" fill="#FFBE21"/>
<path d="M230.7 4.33688C225.856 1.62874 218.254 -1.06448 209.667 1.60882C193.921 6.51234 190.899 20.1476 188.818 29.1781C187.374 35.4257 185.931 42.6192 185.931 42.6192C185.931 42.6192 159.009 44.5408 161.896 71.9458C147.584 75.2165 132.584 94.4771 144.089 112.882C146.222 116.211 148.861 119.189 151.91 121.708C152.225 121.967 152.509 122.206 152.761 122.425C159.969 128.672 189.779 136.862 199.392 105.598C224.875 94.059 211.414 67.1369 211.414 67.1369C213.926 59.5847 213.583 51.3738 210.448 44.0579C202.279 43.5601 196.295 31.493 205.162 25.7929C211.892 21.4619 219.598 32.5682 219.598 32.5682C219.598 32.5682 231.501 29.9248 241.059 24.8321C241.059 24.8321 241.059 24.7923 241.059 24.7774C241.059 24.7624 248.716 21.0835 250.822 14.2535C254.68 1.7731 238.814 -4.95742 230.7 4.33688Z" fill="#FFBE21"/>
<path d="M240.477 149.626C237.749 143.219 233.079 131.844 230.162 122.445" stroke="#30242A" stroke-width="4" stroke-linecap="round" stroke-linejoin="round"/>
<path d="M333.793 221.083L332.081 217.15" stroke="#30242A" stroke-width="4" stroke-linecap="round" stroke-linejoin="round"/>
<path d="M353.248 233.105C350.122 229.028 343.63 219.893 338.314 212.824" stroke="#30242A" stroke-width="4" stroke-linecap="round" stroke-linejoin="round"/>
<path d="M358.724 228.127C354.901 222.506 349.042 213.69 345.064 208.02" stroke="#30242A" stroke-width="4" stroke-linecap="round" stroke-linejoin="round"/>
<path d="M354.448 206.765C352.651 204.008 350.635 201.006 348.474 197.964" stroke="#30242A" stroke-width="4" stroke-linecap="round" stroke-linejoin="round"/>
<path d="M232.014 3.97351C233.119 4.75509 234.354 5.6661 235.449 6.58209" stroke="#CA7358" stroke-width="4" stroke-linecap="round" stroke-linejoin="round"/>
<path d="M184.716 43.1768L183.526 48.8868" stroke="#CA7358" stroke-width="4" stroke-linecap="round" stroke-linejoin="round"/>
<path d="M160.915 72.8467C161.691 76.7874 163.163 80.5585 165.261 83.9829" stroke="#CA7358" stroke-width="4" stroke-linecap="round" stroke-linejoin="round"/>
<path d="M223.626 62.8507C221.715 62.1826 219.872 61.3359 218.12 60.3218" stroke="#30242A" stroke-width="4" stroke-linecap="round" stroke-linejoin="round"/>
<path d="M259.006 268.515C258.265 269.983 257.131 271.217 255.73 272.079C254.33 272.941 252.718 273.397 251.073 273.397C249.429 273.397 247.816 272.941 246.416 272.079C245.015 271.217 243.881 269.983 243.14 268.515C242.399 269.983 241.265 271.217 239.865 272.079C238.464 272.941 236.852 273.397 235.208 273.397C233.563 273.397 231.951 272.941 230.55 272.079C229.15 271.217 228.016 269.983 227.275 268.515C226.535 269.983 225.401 271.217 224.001 272.079C222.601 272.942 220.989 273.398 219.344 273.398C217.7 273.398 216.088 272.942 214.688 272.079C213.288 271.217 212.154 269.983 211.414 268.515C211.077 269.173 210.661 269.786 210.175 270.342C223.432 306.09 215.257 323.4 211.414 358.013C210.636 365.357 210.413 372.749 210.747 380.126H256.741C258.413 365.55 261.853 345.861 263.82 321.448C259.357 321.149 255.182 319.134 252.172 315.825C249.162 312.517 247.55 308.171 247.673 303.699C247.797 299.228 249.647 294.978 252.835 291.84C256.023 288.703 260.303 286.921 264.776 286.87C264.94 286.87 265.104 286.87 265.273 286.87C265.273 282.21 265.129 277.635 264.895 273.15C263.635 272.852 262.456 272.283 261.439 271.482C260.422 270.682 259.591 269.669 259.006 268.515Z" fill="#F5EBDD"/>
<path d="M195.549 268.515C194.808 269.983 193.674 271.217 192.273 272.079C190.873 272.941 189.26 273.397 187.616 273.397C185.971 273.397 184.359 272.941 182.959 272.079C181.558 271.217 180.424 269.983 179.683 268.515C178.942 269.983 177.808 271.217 176.408 272.079C175.007 272.941 173.395 273.397 171.75 273.397C170.106 273.397 168.494 272.941 167.093 272.079C165.693 271.217 164.559 269.983 163.818 268.515C163.217 269.707 162.355 270.748 161.296 271.561C160.237 272.374 159.008 272.938 157.701 273.211C156.394 273.484 155.043 273.458 153.747 273.136C152.451 272.815 151.245 272.205 150.217 271.353C145.737 284.555 140.574 288.811 117.665 323.878C111.653 333.149 106.476 342.934 102.192 353.12L143.512 374.123C152.129 359.765 165.236 342.312 176.169 324.838C172.335 322.598 169.509 318.97 168.276 314.705C167.043 310.44 167.496 305.863 169.542 301.923C171.588 297.983 175.071 294.98 179.27 293.535C183.468 292.091 188.061 292.315 192.099 294.163C195.803 285.356 198.466 277.645 200.134 272.756C198.145 271.941 196.517 270.435 195.549 268.515Z" fill="#F5EBDD"/>
<path d="M204.564 273.329C204.848 273.294 205.132 273.249 205.41 273.19H205.47C205.739 273.127 206.003 273.052 206.262 272.966L206.391 272.931C206.665 272.831 206.939 272.727 207.203 272.602H207.237C207.501 272.478 207.735 272.343 208.009 272.194L208.054 272.164C208.313 272.011 208.564 271.845 208.806 271.666C209.299 271.293 209.751 270.87 210.155 270.402C210.641 269.846 211.058 269.232 211.394 268.575C212.135 270.043 213.268 271.277 214.668 272.139C216.068 273.001 217.68 273.458 219.325 273.458C220.969 273.458 222.581 273.001 223.981 272.139C225.381 271.277 226.515 270.043 227.255 268.575C227.996 270.043 229.13 271.276 230.53 272.138C231.931 273 233.543 273.457 235.188 273.457C236.832 273.457 238.444 273 239.845 272.138C241.245 271.276 242.379 270.043 243.12 268.575C243.861 270.043 244.995 271.276 246.396 272.138C247.796 273 249.409 273.457 251.053 273.457C252.698 273.457 254.31 273 255.71 272.138C257.111 271.276 258.245 270.043 258.986 268.575C259.57 269.729 260.398 270.742 261.414 271.543C262.429 272.344 263.607 272.915 264.865 273.214C264.133 259.712 262.451 246.277 259.832 233.011C256.239 234 252.483 234.255 248.789 233.758C245.095 233.261 241.54 232.023 238.336 230.118C224.542 222.238 221.087 183.677 220.29 170.021H178.722C154.683 191.657 155.165 256.079 150.596 270.203C150.471 270.591 150.342 270.964 150.217 271.338C151.245 272.19 152.451 272.8 153.747 273.122C155.043 273.443 156.394 273.469 157.701 273.196C159.008 272.923 160.237 272.36 161.296 271.547C162.355 270.734 163.217 269.692 163.818 268.5C164.559 269.968 165.693 271.202 167.093 272.064C168.494 272.926 170.106 273.382 171.75 273.382C173.395 273.382 175.007 272.926 176.408 272.064C177.808 271.202 178.942 269.968 179.683 268.5C180.424 269.968 181.558 271.202 182.959 272.064C184.359 272.926 185.971 273.382 187.616 273.382C189.26 273.382 190.873 272.926 192.273 272.064C193.674 271.202 194.808 269.968 195.549 268.5C196.516 270.409 198.135 271.907 200.114 272.722C200.631 272.938 201.168 273.105 201.717 273.219H201.796C202.025 273.264 202.254 273.299 202.488 273.324H202.677C202.941 273.324 203.21 273.364 203.479 273.364C203.748 273.364 204.071 273.364 204.365 273.319L204.564 273.329Z" fill="#30242A"/>
<path d="M218.145 426.757H257.567C257.567 426.757 258.981 417.438 263.974 411.355C260.076 408.532 256.91 405.027 256.123 399.352C255.451 394.508 255.835 388.077 256.741 380.121H210.747C211.477 395.893 213.958 411.534 218.145 426.757Z" fill="#FF7235"/>
<path d="M88.821 398.381L87.5815 397.764C87.4574 397.703 87.3293 397.649 87.1982 397.605L124.097 416.462C124.097 416.462 129.573 408.955 136.627 405.888C135.691 403.953 134.975 401.919 134.491 399.825C133.137 393.851 137.07 384.831 143.507 374.108L102.188 353.105C91.6188 378.07 88.821 398.381 88.821 398.381Z" fill="#FF7235"/>
<path d="M218.145 426.757H216.94C216.519 426.74 216.099 426.809 215.706 426.958C215.312 427.108 214.953 427.335 214.649 427.627C214.346 427.918 214.104 428.268 213.939 428.656C213.774 429.043 213.689 429.46 213.689 429.881C213.689 430.302 213.774 430.719 213.939 431.106C214.104 431.493 214.346 431.844 214.649 432.135C214.953 432.427 215.312 432.654 215.706 432.804C216.099 432.953 216.519 433.022 216.94 433.005H283.055C283.055 420.062 271.974 417.144 263.984 411.355C259.006 417.438 257.577 426.757 257.577 426.757H218.145Z" fill="#30242A"/>
<path d="M124.097 416.477L87.1981 397.62C86.4735 397.367 85.6799 397.4 84.9787 397.712C84.2775 398.024 83.7216 398.591 83.4241 399.299C83.1265 400.006 83.1097 400.8 83.3771 401.519C83.6445 402.239 84.176 402.829 84.8634 403.17L143.606 433.01C149.246 421.326 141.182 415.516 136.607 405.903C129.573 408.97 124.097 416.477 124.097 416.477Z" fill="#30242A"/>
<path d="M247.471 304.169C247.471 308.593 249.165 312.849 252.206 316.063C255.246 319.277 259.402 321.204 263.82 321.448C264.606 311.636 265.159 301.038 265.258 289.747C265.258 288.786 265.258 287.83 265.258 286.875C265.099 286.875 264.935 286.875 264.761 286.875C260.176 286.88 255.781 288.704 252.539 291.946C249.298 295.188 247.475 299.584 247.471 304.169Z" fill="#FFBE21"/>
<path d="M167.661 309.939C167.66 312.946 168.444 315.902 169.935 318.515C171.426 321.127 173.573 323.305 176.164 324.833C177.363 322.912 178.543 320.99 179.683 319.074C184.378 311.061 188.52 302.736 192.079 294.158C189.444 292.976 186.555 292.472 183.676 292.692C180.796 292.912 178.018 293.849 175.593 295.418C173.168 296.986 171.174 299.137 169.793 301.673C168.412 304.209 167.688 307.051 167.686 309.939H167.661Z" fill="#FFBE21"/>
<path d="M238.336 230.118C241.548 232.013 245.109 233.239 248.807 233.723C252.504 234.208 256.261 233.94 259.852 232.936C252.385 194.868 239.775 170.021 239.775 170.021H220.29C221.087 183.691 224.542 222.253 238.336 230.118Z" fill="#FFBE21"/>
<path d="M238.346 46.4226C237.51 46.8458 234.508 46.9702 233.507 44.5807" stroke="#30242A" stroke-width="4" stroke-linecap="round" stroke-linejoin="round"/>
<path d="M236.41 35.9087C237.207 35.9087 237.853 35.2624 237.853 34.465C237.853 33.6677 237.207 33.0214 236.41 33.0214C235.612 33.0214 234.966 33.6677 234.966 34.465C234.966 35.2624 235.612 35.9087 236.41 35.9087Z" fill="#30242A"/>
<path d="M209.01 33.9821L213.814 37.3473" stroke="#30242A" stroke-width="4" stroke-linecap="round" stroke-linejoin="round"/>
<path d="M178.239 170.036H239.775" stroke="#30242A" stroke-width="4" stroke-miterlimit="10" stroke-linecap="round"/>
<path d="M195.902 171.48C195.902 171.48 207.163 187.579 201.876 189.317C196.987 190.92 196.027 178.897 195.902 171.48Z" stroke="#A15842" stroke-width="4" stroke-linecap="round" stroke-linejoin="round"/>
<path d="M195.554 171.48C195.554 171.48 189.779 185.917 185.453 183.497C182.635 181.934 189.779 174.86 195.554 171.48Z" stroke="#A15842" stroke-width="4" stroke-linecap="round" stroke-linejoin="round"/>
<path d="M107.33 167.632H29.9289C28.2023 167.632 26.8026 169.03 26.8026 170.756C26.8026 172.481 28.2023 173.88 29.9289 173.88H107.33C109.057 173.88 110.456 172.481 110.456 170.756C110.456 169.03 109.057 167.632 107.33 167.632Z" fill="#30242A"/>
<path d="M68.6295 169.558C46.0334 169.558 35.9376 153.21 35.9376 153.21V193.573C35.9442 197.268 37.4149 200.81 40.0275 203.422C42.6402 206.035 46.1818 207.505 49.8766 207.512H87.3276C91.0267 207.512 94.5747 206.044 97.1927 203.431C99.8108 200.818 101.285 197.272 101.291 193.573V153.21C101.291 153.21 91.2205 169.558 68.6295 169.558Z" fill="#FFB494"/>
<path d="M68.6295 169.558C91.2205 169.558 101.316 153.21 101.316 153.21H35.9376C35.9376 153.21 46.0334 169.558 68.6295 169.558Z" fill="#A15842"/>
<path d="M69.3463 153.21C72.6648 153.21 75.355 150.52 75.355 147.201C75.355 143.883 72.6648 141.193 69.3463 141.193C66.0278 141.193 63.3376 143.883 63.3376 147.201C63.3376 150.52 66.0278 153.21 69.3463 153.21Z" fill="#30242A"/>
<path d="M69.8292 115.714C74.7424 115.714 78.7252 111.731 78.7252 106.818C78.7252 101.905 74.7424 97.9221 69.8292 97.9221C64.9161 97.9221 60.9332 101.905 60.9332 106.818C60.9332 111.731 64.9161 115.714 69.8292 115.714Z" fill="#F5EBDD"/>
<path d="M69.9835 89.0361C77.2199 89.0361 83.0862 83.1698 83.0862 75.9334C83.0862 68.6971 77.2199 62.8308 69.9835 62.8308C62.7472 62.8308 56.8809 68.6971 56.8809 75.9334C56.8809 83.1698 62.7472 89.0361 69.9835 89.0361Z" fill="#F5EBDD"/>
<path d="M507.074 315.245C507.074 315.245 502.499 325.54 490.492 325.54C478.485 325.54 473.915 315.245 473.915 315.245C473.915 315.245 440.182 392.437 473.342 433.03H507.652C540.812 392.407 507.074 315.245 507.074 315.245Z" fill="#3EC1F3"/>
<path d="M490.497 325.52C502.504 325.52 507.079 315.225 507.079 315.225H473.915C473.915 315.225 478.49 325.52 490.497 325.52Z" fill="#30242A"/>
<path d="M521.511 383.945C502.848 384.278 480.78 391.014 463.764 414.809" stroke="#F5EBDD" stroke-width="4" stroke-linecap="round" stroke-linejoin="round"/>
<path d="M460.777 365.027C473.302 361.971 497.028 359.053 520.018 364.529" stroke="#F5EBDD" stroke-width="4" stroke-linecap="round" stroke-linejoin="round"/>
<path d="M519.903 403.763C511.555 403.857 496.122 413.316 497.825 432.382" stroke="#F5EBDD" stroke-width="4" stroke-linecap="round" stroke-linejoin="round"/>
<path d="M500.832 239.766L491.652 320.039" stroke="#30242A" stroke-width="4" stroke-miterlimit="10"/>
<path d="M505.272 272.01L493.733 319.382" stroke="#30242A" stroke-width="4" stroke-miterlimit="10"/>
<path d="M481.196 293.828C482.243 291.379 474.805 285.849 464.581 281.478C454.358 277.107 445.222 275.549 444.174 277.999C443.127 280.449 450.565 285.978 460.789 290.349C471.012 294.72 480.148 296.278 481.196 293.828Z" fill="#30242A"/>
<path d="M519.469 298.07C530.256 294.003 538.268 288.764 537.365 286.369C536.462 283.974 526.985 285.33 516.198 289.397C505.412 293.464 497.399 298.703 498.302 301.098C499.205 303.493 508.682 302.138 519.469 298.07Z" fill="#30242A"/>
<path d="M496.317 281.175C497.48 279.57 494.174 275.188 488.932 271.388C483.69 267.588 478.497 265.808 477.333 267.413C476.17 269.018 479.476 273.4 484.718 277.2C489.961 281 495.153 282.78 496.317 281.175Z" fill="#30242A"/>
<path d="M467.219 252.888L489.77 320.034" stroke="#30242A" stroke-width="4" stroke-miterlimit="10"/>
<path d="M496.247 257.364C497.137 255.428 498.48 253.736 500.162 252.429C501.844 251.122 503.815 250.238 505.91 249.854C508.005 249.469 510.162 249.594 512.199 250.218C514.236 250.842 516.092 251.947 517.612 253.44C519.132 254.932 520.27 256.769 520.931 258.794C521.591 260.819 521.755 262.973 521.408 265.075C521.061 267.176 520.214 269.164 518.937 270.869C517.661 272.574 515.993 273.947 514.074 274.872C512.925 270.634 510.668 266.778 507.535 263.7C504.401 260.623 500.505 258.436 496.247 257.364Z" fill="#FF7235"/>
<path d="M503.191 264.871C504.984 259.124 508.804 254.223 513.939 251.081" stroke="#F5EBDD" stroke-width="4" stroke-miterlimit="10" stroke-linecap="round"/>
<path d="M505.407 266.638C509.087 261.843 514.403 258.568 520.341 257.438" stroke="#F5EBDD" stroke-width="4" stroke-miterlimit="10" stroke-linecap="round"/>
<path d="M514.074 274.872C511.612 276.059 508.843 276.457 506.146 276.012C503.449 275.567 500.956 274.3 499.006 272.385C497.056 270.469 495.744 267.999 495.25 265.311C494.757 262.622 495.105 259.847 496.247 257.364C500.505 258.436 504.401 260.623 507.535 263.7C510.668 266.778 512.925 270.634 514.074 274.872Z" fill="#FF7235"/>
<path d="M475.866 238.138C474.769 236.31 473.249 234.773 471.433 233.657C469.616 232.541 467.558 231.878 465.432 231.726C463.306 231.573 461.174 231.935 459.217 232.78C457.26 233.625 455.535 234.929 454.189 236.582C452.842 238.234 451.913 240.187 451.481 242.274C451.048 244.361 451.124 246.522 451.703 248.574C452.282 250.625 453.346 252.507 454.806 254.061C456.266 255.614 458.078 256.793 460.09 257.498C460.766 253.162 462.584 249.084 465.356 245.682C468.128 242.279 471.756 239.676 475.866 238.138Z" fill="#FF7235"/>
<path d="M469.793 246.372C467.379 240.856 463.04 236.408 457.586 233.857" stroke="#F5EBDD" stroke-width="4" stroke-miterlimit="10" stroke-linecap="round"/>
<path d="M467.791 248.368C463.594 244.014 457.942 241.356 451.911 240.901" stroke="#F5EBDD" stroke-width="4" stroke-miterlimit="10" stroke-linecap="round"/>
<path d="M460.09 257.498C462.669 258.406 465.465 258.495 468.097 257.753C470.728 257.012 473.067 255.476 474.793 253.356C476.519 251.235 477.548 248.634 477.74 245.907C477.932 243.179 477.278 240.459 475.866 238.118C471.753 239.658 468.124 242.264 465.352 245.67C462.579 249.076 460.763 253.159 460.09 257.498Z" fill="#FF7235"/>
<path d="M513.546 232.244C513.594 230.115 513.129 228.005 512.19 226.094C511.251 224.182 509.866 222.524 508.152 221.26C506.438 219.996 504.445 219.163 502.341 218.831C500.237 218.5 498.085 218.679 496.065 219.354C494.045 220.029 492.217 221.18 490.735 222.71C489.253 224.24 488.162 226.104 487.552 228.144C486.942 230.185 486.832 232.342 487.231 234.434C487.63 236.526 488.527 238.491 489.845 240.164C492.737 236.859 496.456 234.383 500.622 232.991C504.787 231.599 509.248 231.341 513.546 232.244Z" fill="#FF7235"/>
<path d="M504.018 235.948C504.929 229.995 503.645 223.913 500.404 218.838" stroke="#F5EBDD" stroke-width="4" stroke-miterlimit="10" stroke-linecap="round"/>
<path d="M501.26 236.56C500.049 230.633 496.7 225.358 491.851 221.74" stroke="#F5EBDD" stroke-width="4" stroke-miterlimit="10" stroke-linecap="round"/>
<path d="M489.855 240.164C491.548 242.308 493.861 243.877 496.479 244.657C499.097 245.438 501.892 245.392 504.482 244.526C507.073 243.659 509.334 242.015 510.956 239.817C512.578 237.62 513.482 234.975 513.546 232.244C509.25 231.343 504.791 231.602 500.627 232.994C496.464 234.386 492.746 236.861 489.855 240.164Z" fill="#FF7235"/>
<path d="M476.364 238.636C472.254 240.174 468.626 242.777 465.854 246.179C463.082 249.582 461.264 253.66 460.588 257.996" stroke="#F5EBDD" stroke-width="4" stroke-miterlimit="10" stroke-linecap="round"/>
<path d="M513.78 232.244C509.51 231.228 505.046 231.366 500.846 232.645C496.647 233.924 492.864 236.298 489.885 239.522" stroke="#F5EBDD" stroke-width="4" stroke-miterlimit="10" stroke-linecap="round"/>
<path d="M515.393 273.852C514.049 269.671 511.617 265.923 508.346 262.993C505.075 260.063 501.082 258.057 496.78 257.18" stroke="#F5EBDD" stroke-width="4" stroke-miterlimit="10" stroke-linecap="round"/>
</svg>
