<svg width="64" height="64" viewBox="0 0 64 64" fill="none" xmlns="http://www.w3.org/2000/svg">
<circle cx="32" cy="32" r="32" fill="#E2598B" fill-opacity="0.05"/>
<g clip-path="url(#clip0_1284_89)">
<path d="M39.35 30.04C39.0141 28.3377 38.0976 26.8049 36.7571 25.7032C35.4165 24.6016 33.7351 23.9996 32 24C29.11 24 26.6 25.64 25.35 28.04C23.8802 28.1988 22.521 28.8952 21.5335 29.9953C20.546 31.0954 19.9998 32.5217 20 34C20 37.31 22.69 40 26 40H39C41.76 40 44 37.76 44 35C44 32.36 41.95 30.22 39.35 30.04ZM39 38H26C23.79 38 22 36.21 22 34C22 31.79 23.79 30 26 30H26.71C27.37 27.69 29.48 26 32 26C35.04 26 37.5 28.46 37.5 31.5V32H39C40.66 32 42 33.34 42 35C42 36.66 40.66 38 39 38Z" fill="#E2598B"/>
</g>
<defs>
<clipPath id="clip0_1284_89">
<rect width="24" height="24" fill="white" transform="translate(20 20)"/>
</clipPath>
</defs>
</svg>
