<svg width="539" height="478" viewBox="0 0 539 478" fill="none" xmlns="http://www.w3.org/2000/svg">
<path d="M291.338 15.0418H297.335C319.997 15.0473 341.729 24.0535 357.751 40.0799C373.774 56.1062 382.775 77.8403 382.775 100.502V263.538H205.852V100.502C205.852 89.2771 208.063 78.1621 212.36 67.7919C216.656 57.4216 222.953 47.9994 230.892 40.0633C238.83 32.1273 248.254 25.8328 258.626 21.5396C268.998 17.2463 280.113 15.0383 291.338 15.0418Z" fill="#FFB494"/>
<path d="M326.436 165.397V266.076H247.929V165.397H326.436ZM328.516 163.317H245.849V268.157H328.516V163.317Z" fill="#CA7358"/>
<path d="M328.516 163.311H245.849V184.985H328.516V163.311Z" fill="#CA7358"/>
<path d="M245.407 110.957V266.581H198.154V110.957H245.407ZM247.487 108.876H196.074V268.661H247.487V108.876Z" fill="#CA7358"/>
<path d="M391.331 79.4531V266.076H328.958V79.4531H391.331ZM393.411 77.3726H326.878V268.157H393.411V77.3726Z" fill="#CA7358"/>
<path d="M353.924 102.827H354.522C356.782 102.827 358.949 103.725 360.546 105.322C362.144 106.92 363.042 109.087 363.042 111.347V130.549H345.399V111.347C345.399 110.227 345.62 109.119 346.048 108.085C346.477 107.051 347.105 106.112 347.896 105.321C348.688 104.529 349.628 103.902 350.662 103.474C351.696 103.046 352.805 102.826 353.924 102.827Z" fill="#CA7358"/>
<path d="M343.386 117.947H365.06" stroke="#FFB494" stroke-width="4" stroke-linecap="round" stroke-linejoin="round"/>
<path d="M353.924 152.561H354.522C356.782 152.561 358.949 153.458 360.546 155.056C362.144 156.654 363.042 158.821 363.042 161.08V180.283H345.399V161.08C345.399 159.961 345.62 158.853 346.048 157.819C346.477 156.785 347.105 155.845 347.896 155.054C348.688 154.263 349.628 153.636 350.662 153.208C351.696 152.78 352.805 152.56 353.924 152.561Z" fill="#F5EBDD"/>
<path d="M343.386 167.68H365.06" stroke="#FFB494" stroke-width="4" stroke-linecap="round" stroke-linejoin="round"/>
<path d="M353.924 202.294H354.522C356.782 202.294 358.949 203.192 360.546 204.79C362.144 206.387 363.042 208.554 363.042 210.814V230.016H345.399V210.814C345.399 208.554 346.297 206.387 347.894 204.79C349.492 203.192 351.659 202.294 353.919 202.294H353.924Z" fill="#F5EBDD"/>
<path d="M343.386 217.414H365.06" stroke="#FFB494" stroke-width="4" stroke-linecap="round" stroke-linejoin="round"/>
<path d="M353.924 252.028H354.522C356.782 252.028 358.949 252.925 360.546 254.523C362.144 256.121 363.042 258.288 363.042 260.547V278.19H345.399V260.547C345.399 259.428 345.62 258.32 346.048 257.286C346.477 256.252 347.105 255.312 347.896 254.521C348.688 253.73 349.628 253.103 350.662 252.675C351.696 252.247 352.805 252.027 353.924 252.028Z" fill="#30242A"/>
<path d="M393.411 77.3726H326.878V85.6893H393.411V77.3726Z" fill="#CA7358"/>
<path d="M247.487 104.845H196.074V113.162H247.487V104.845Z" fill="#CA7358"/>
<path d="M278.361 204.645H260.719V227.327H278.361V204.645Z" fill="#F5EBDD"/>
<path d="M258.701 214.725H280.379" stroke="#FFB494" stroke-width="4" stroke-linecap="round" stroke-linejoin="round"/>
<path d="M269.54 228.336V214.725" stroke="#FFB494" stroke-width="4" stroke-linecap="round" stroke-linejoin="round"/>
<path d="M278.361 245.61H260.719V268.292H278.361V245.61Z" fill="#CA7358"/>
<path d="M258.701 255.689H280.379" stroke="#FFB494" stroke-width="4" stroke-linecap="round" stroke-linejoin="round"/>
<path d="M269.54 269.301V255.689" stroke="#FFB494" stroke-width="4" stroke-linecap="round" stroke-linejoin="round"/>
<path d="M311.628 204.645H293.986V227.327H311.628V204.645Z" fill="#30242A"/>
<path d="M291.973 214.725H313.646" stroke="#FFB494" stroke-width="4" stroke-linecap="round" stroke-linejoin="round"/>
<path d="M302.807 228.336V214.725" stroke="#FFB494" stroke-width="4" stroke-linecap="round" stroke-linejoin="round"/>
<path d="M311.628 245.61H293.986V268.292H311.628V245.61Z" fill="#F5EBDD"/>
<path d="M291.973 255.689H313.646" stroke="#FFB494" stroke-width="4" stroke-linecap="round" stroke-linejoin="round"/>
<path d="M302.807 269.301V255.689" stroke="#FFB494" stroke-width="4" stroke-linecap="round" stroke-linejoin="round"/>
<path d="M257.567 76.6184C264.806 76.6184 270.674 70.7502 270.674 63.5114C270.674 56.2727 264.806 50.4045 257.567 50.4045C250.328 50.4045 244.46 56.2727 244.46 63.5114C244.46 70.7502 250.328 76.6184 257.567 76.6184Z" fill="#F5EBDD"/>
<path d="M405.457 263.621H183.17V278.741H405.457V263.621Z" fill="#F5EBDD"/>
<path d="M297.824 0H290.818C235.55 0 190.748 44.8029 190.748 100.07V278.741H397.915V100.07C397.9 44.8029 353.092 0 297.824 0ZM286.756 263.621H205.852V137.607H286.756V263.621ZM286.756 122.488H205.852V100.585C205.853 78.7087 214.242 57.6652 229.293 41.7888C244.344 25.9125 264.91 16.4122 286.756 15.2446V122.488ZM382.775 263.621H301.876V137.607H382.775V263.621ZM382.775 122.488H301.876V15.2446C323.721 16.4123 344.286 25.9127 359.337 41.7892C374.387 57.6657 382.775 78.7092 382.775 100.585V122.488Z" fill="#F5EBDD"/>
<path d="M20.1597 477.842C31.2936 477.842 40.3195 468.816 40.3195 457.682C40.3195 446.548 31.2936 437.522 20.1597 437.522C9.02582 437.522 0 446.548 0 457.682C0 468.816 9.02582 477.842 20.1597 477.842Z" fill="#FFB494"/>
<path d="M469.764 293.346C469.768 293.902 469.654 294.453 469.431 294.963C467.871 298.516 461.203 299.041 454.572 296.134C449.017 293.705 445.241 289.637 445.08 286.293V330.649H469.78V293.346H469.764Z" fill="#FFBE21"/>
<path d="M460.267 283.282C453.635 280.374 446.978 280.9 445.407 284.452C445.154 285.035 445.042 285.669 445.08 286.304C445.241 289.648 449.017 293.715 454.572 296.144C461.203 299.052 467.861 298.526 469.431 294.974C469.654 294.464 469.768 293.913 469.764 293.356C469.78 289.97 465.957 285.768 460.267 283.282Z" fill="#A15842"/>
<path d="M488.702 307.977C488.541 311.321 484.764 315.388 479.21 317.823C472.573 320.725 465.921 320.205 464.345 316.647C464.124 316.138 464.011 315.589 464.012 315.035V330.638H488.707V307.977H488.702Z" fill="#FFBE21"/>
<path d="M488.374 306.125C486.814 302.573 480.146 302.047 473.509 304.955C467.824 307.446 464.001 311.644 464.012 315.035C464.011 315.589 464.124 316.138 464.345 316.647C465.905 320.205 472.573 320.725 479.21 317.823C484.765 315.388 488.541 311.321 488.702 307.977C488.739 307.342 488.627 306.708 488.374 306.125Z" fill="#A15842"/>
<path d="M464.735 330.659V315.539" stroke="#A15842" stroke-width="4" stroke-miterlimit="10" stroke-linecap="round"/>
<path d="M457.427 280V288.571" stroke="#30242A" stroke-width="4" stroke-linecap="round" stroke-linejoin="round"/>
<path d="M476.359 301.678V310.749" stroke="#30242A" stroke-width="4" stroke-linecap="round" stroke-linejoin="round"/>
<path d="M351.672 477.987C351.041 477.988 350.42 477.839 349.858 477.552C349.296 477.266 348.811 476.85 348.441 476.339C348.072 475.828 347.828 475.237 347.732 474.614C347.635 473.991 347.688 473.354 347.885 472.755L360.368 434.714C360.632 433.916 361.14 433.222 361.821 432.73C362.501 432.238 363.32 431.973 364.16 431.973H372.908C373.603 431.972 374.286 432.154 374.889 432.499C375.493 432.844 375.995 433.341 376.347 433.94C376.699 434.54 376.888 435.221 376.895 435.916C376.902 436.611 376.727 437.295 376.388 437.902L355.136 475.943C354.792 476.561 354.29 477.076 353.681 477.435C353.072 477.795 352.379 477.985 351.672 477.987Z" fill="#30242A"/>
<path d="M518.9 477.987C519.53 477.988 520.152 477.839 520.713 477.552C521.275 477.266 521.761 476.85 522.13 476.339C522.5 475.828 522.743 475.237 522.84 474.614C522.936 473.991 522.884 473.354 522.686 472.755L510.203 434.714C509.94 433.917 509.433 433.223 508.753 432.731C508.073 432.239 507.256 431.974 506.417 431.973H497.663C496.969 431.974 496.287 432.156 495.685 432.502C495.082 432.847 494.58 433.344 494.229 433.943C493.878 434.542 493.688 435.222 493.681 435.916C493.673 436.611 493.846 437.295 494.184 437.902L515.436 475.943C515.78 476.56 516.283 477.075 516.891 477.434C517.5 477.793 518.193 477.984 518.9 477.987Z" fill="#30242A"/>
<path d="M538.201 330.659H333.052V448.101H538.201V330.659Z" fill="#A15842"/>
<path d="M523.076 345.779H348.171V432.982H523.076V345.779Z" fill="#FFB494"/>
<path d="M435.437 344.271V434.495" stroke="#A15842" stroke-width="4" stroke-miterlimit="10"/>
<path d="M456.049 394.665C458.967 394.665 461.333 392.299 461.333 389.38C461.333 386.462 458.967 384.096 456.049 384.096C453.13 384.096 450.764 386.462 450.764 389.38C450.764 392.299 453.13 394.665 456.049 394.665Z" fill="#30242A"/>
<path d="M415.199 394.665C418.117 394.665 420.483 392.299 420.483 389.38C420.483 386.462 418.117 384.096 415.199 384.096C412.28 384.096 409.914 386.462 409.914 389.38C409.914 392.299 412.28 394.665 415.199 394.665Z" fill="#30242A"/>
<path d="M81.0966 429.096V437.663H155.192V429.096H81.0966Z" fill="#A15842"/>
<path d="M167.4 473.556L149.045 363.421H160.269C161.472 363.421 162.625 362.943 163.476 362.093C164.326 361.242 164.804 360.089 164.804 358.886C164.804 357.683 164.326 356.529 163.476 355.679C162.625 354.828 161.472 354.35 160.269 354.35H76.1087C74.9058 354.35 73.7522 354.828 72.9017 355.679C72.0511 356.529 71.5733 357.683 71.5733 358.886C71.5733 360.089 72.0511 361.242 72.9017 362.093C73.7522 362.943 74.9058 363.421 76.1087 363.421H87.2444L68.8895 473.556C68.7988 474.101 68.828 474.66 68.975 475.193C69.122 475.725 69.3833 476.22 69.7406 476.641C70.098 477.063 70.5428 477.402 71.0444 477.634C71.5459 477.867 72.092 477.987 72.6447 477.987C73.5136 477.988 74.3565 477.691 75.0331 477.146C75.7098 476.601 76.1793 475.841 76.3635 474.991L100.684 363.421H135.605L159.92 474.991C160.106 475.841 160.577 476.601 161.255 477.145C161.932 477.69 162.775 477.987 163.644 477.987C164.197 477.987 164.743 477.867 165.245 477.634C165.746 477.402 166.191 477.063 166.548 476.641C166.906 476.22 167.167 475.725 167.314 475.193C167.461 474.66 167.49 474.101 167.4 473.556Z" fill="#FFBE21"/>
<path d="M160.269 363.421C161.472 363.421 162.625 362.943 163.476 362.093C164.326 361.242 164.804 360.089 164.804 358.886C164.804 357.683 164.326 356.529 163.476 355.679C162.625 354.828 161.472 354.35 160.269 354.35H76.1087C74.9059 354.35 73.7522 354.828 72.9017 355.679C72.0511 356.529 71.5733 357.683 71.5733 358.886C71.5733 360.089 72.0511 361.242 72.9017 362.093C73.7522 362.943 74.9059 363.421 76.1087 363.421H87.2444V363.562H100.674L100.705 363.421H135.626L135.657 363.562H149.086V363.421H160.269Z" fill="#A15842"/>
<path d="M165.257 428.951H218.829C219.495 417.576 221.871 402.487 223.843 382.104C225.595 364.03 227.104 348.858 227.005 336.334C226.839 315.456 173.433 340.723 173.433 340.723C173.433 345.285 174.354 349.664 174.38 353.908C174.442 364.935 168.856 374.318 164.867 387.617C158.818 407.782 163.858 428.951 163.858 428.951H165.257Z" fill="#4856DF"/>
<path d="M221.684 472.297H174.785C174.134 472.505 173.579 472.938 173.219 473.519C172.859 474.099 172.719 474.79 172.823 475.465C172.927 476.14 173.269 476.756 173.787 477.201C174.305 477.647 174.965 477.892 175.649 477.894L244.663 477.987C245.271 471.278 241.459 466.228 230.703 458.743C224.566 464.064 221.684 472.297 221.684 472.297Z" fill="#3EC1F3"/>
<path d="M228.285 457.115C226.057 455.675 224.133 453.813 222.62 451.633C218.98 446.291 218.21 439.098 218.808 428.951H172.382C172.472 436.538 173.019 444.112 174.021 451.633C175.207 460.147 176.809 466.004 178.093 472.162H175.654C175.359 472.162 175.066 472.207 174.785 472.297H221.684C221.684 472.297 224.566 464.064 230.703 458.774C229.933 458.23 229.127 457.677 228.285 457.115Z" fill="#A15842"/>
<path d="M219.37 419.838C216.498 414.123 214.541 407.993 213.57 401.671C210.174 378.073 212.187 365.975 202.611 355.38H174.593" stroke="#30242A" stroke-width="4" stroke-linecap="round" stroke-linejoin="round"/>
<path d="M236.84 430.964L236.892 431.088L278.252 411.719C275.033 402.087 271.667 389.271 266.139 372.497C260.958 356.8 257.531 345.072 254.285 335.995C249.746 339.265 244.149 340.72 238.593 340.074C233.036 339.429 227.922 336.729 224.253 332.506C220.585 328.284 218.627 322.842 218.765 317.25C218.902 311.657 221.125 306.319 224.997 302.282C202.918 292.306 124.5 285.799 124.5 285.799L80.1396 279.246C77.7991 283.115 75.8071 289.247 74.7252 296.409H90.2247V312.986C90.2164 316.337 88.8799 319.549 86.5079 321.917C84.136 324.285 80.922 325.616 77.5703 325.619H76.6861C76.478 325.619 76.27 325.619 76.0671 325.619C80.3009 341.223 91.1921 354.366 113.422 354.366H203.142C212.717 364.95 210.705 377.048 214.101 400.656C216.878 419.968 230.043 434.204 230.043 434.204L236.84 430.964Z" fill="#4856DF"/>
<path d="M299.847 453.147L258.654 471.829C257.957 472.317 257.468 473.048 257.285 473.88C257.102 474.711 257.238 475.58 257.666 476.315C258.094 477.051 258.783 477.598 259.597 477.849C260.41 478.1 261.287 478.036 262.056 477.67L324.563 448.544C322.114 441.782 315.815 439.181 300.893 436.581L300.253 436.461C299.017 441.942 298.879 447.613 299.847 453.147Z" fill="#3EC1F3"/>
<path d="M300.253 436.44C295.957 435.619 292.586 434.188 289.804 432.025C284.676 428.03 281.534 421.529 278.252 411.74L236.892 431.109C240.398 439.166 245.318 447.639 250.005 455.035C254.098 461.474 258.004 467.086 260.631 470.846L259.138 471.569C258.968 471.652 258.806 471.749 258.654 471.86L299.847 453.178C298.872 447.627 299.01 441.938 300.253 436.44Z" fill="#A15842"/>
<path d="M241.189 340.234C245.892 340.237 250.476 338.754 254.285 335.995C247.83 317.854 242.234 310.297 225.309 302.422L224.997 302.281C221.955 305.454 219.912 309.451 219.122 313.775C218.333 318.099 218.832 322.559 220.557 326.602C222.282 330.645 225.158 334.092 228.826 336.514C232.494 338.935 236.793 340.226 241.189 340.224V340.234Z" fill="#3EC1F3"/>
<path d="M77.5703 325.619C80.9283 325.619 84.1489 324.286 86.5238 321.912C88.8988 319.538 90.2337 316.318 90.2351 312.96V296.383H74.7356C73.3677 305.376 73.4457 315.955 76.0671 325.604C76.27 325.604 76.478 325.604 76.6861 325.604L77.5703 325.619Z" fill="#3EC1F3"/>
<path d="M202.377 355.609H217.497" stroke="#30242A" stroke-width="4" stroke-linecap="round" stroke-linejoin="round"/>
<path d="M267.413 195.319C267.413 195.319 240.195 164.071 208.036 152.737" stroke="#30242A" stroke-width="4" stroke-linecap="round" stroke-linejoin="round"/>
<path d="M182.041 164.945C181.053 162.557 184.35 158.812 189.843 155.65C182.405 153.799 177.121 150.35 177.651 147.453C178.182 144.556 184.34 143.193 191.954 144.088C187.949 139.199 186.186 134.528 187.955 132.645C190.207 130.237 197.353 133.275 203.912 139.407C209.633 144.764 213.014 150.725 212.296 153.757C211.896 156.846 206.627 161.226 199.387 164.222C191.06 167.675 183.305 167.998 182.041 164.945Z" fill="#3546AB"/>
<path d="M212.567 163.462C217.812 163.462 222.064 159.21 222.064 153.965C222.064 148.72 217.812 144.468 212.567 144.468C207.321 144.468 203.069 148.72 203.069 153.965C203.069 159.21 207.321 163.462 212.567 163.462Z" fill="#30242A"/>
<path d="M232.577 166.197C235.187 165.228 234 155.551 229.928 144.583C225.856 133.615 220.439 125.509 217.829 126.478C215.22 127.446 216.406 137.123 220.478 148.091C224.551 159.06 229.968 167.166 232.577 166.197Z" fill="#30242A"/>
<path d="M232.113 168.102C232.113 168.102 236.149 179.191 234.131 190.784" stroke="#30242A" stroke-width="4" stroke-linecap="round" stroke-linejoin="round"/>
<path d="M158.511 123.933C149.908 133.613 140.764 135.75 140.764 135.75C134.851 129.301 124.121 129.301 122.482 138.44C120.698 148.566 133.223 151.354 133.223 151.354C133.223 151.354 136.38 164.419 131.538 170.874C127.262 176.595 121.77 177.537 110.514 178.795C125.182 203.579 140.161 201.623 145.149 201.623C157.112 201.623 160.482 187.741 161.423 180.585C158.7 179.635 155.92 178.851 153.102 178.239L151.489 168.565C151.489 168.565 159.015 171.248 165.47 167.488C171.925 163.728 173.537 156.732 171.384 145.981C170.109 139.61 170.156 131.73 169.064 124.688C164.804 125.411 158.511 123.933 158.511 123.933Z" fill="#A15842"/>
<path d="M247.992 177.932C245.708 168.794 227.832 163.837 227.832 163.837C227.832 163.837 228.903 143.323 224.3 142.668C220.774 142.148 217.242 150.735 214.221 167.368C210.84 185.957 212.707 220.29 212.707 220.29C212.707 220.29 208.967 216.894 203.662 212.166C203.132 213.238 202.319 214.144 201.31 214.786C200.301 215.427 199.136 215.781 197.941 215.807C198.695 216.763 199.168 217.911 199.305 219.121C199.443 220.331 199.24 221.555 198.72 222.656C198.199 223.757 197.382 224.691 196.359 225.353C195.337 226.015 194.15 226.378 192.932 226.402C193.687 227.358 194.159 228.505 194.297 229.716C194.434 230.926 194.231 232.15 193.711 233.251C193.19 234.352 192.373 235.286 191.35 235.948C190.328 236.609 189.141 236.973 187.923 236.996C188.715 238 189.195 239.214 189.305 240.487C189.414 241.761 189.148 243.039 188.54 244.163C187.931 245.287 187.007 246.209 185.88 246.813C184.754 247.418 183.475 247.679 182.202 247.565C193.244 254.753 208.255 263.138 218.257 263.138C270.674 263.117 249.505 183.981 247.992 177.932Z" fill="#A15842"/>
<path d="M188.683 243.826C189.203 242.724 189.406 241.5 189.269 240.29C189.132 239.081 188.661 237.933 187.908 236.976C189.126 236.952 190.312 236.589 191.335 235.927C192.357 235.265 193.175 234.331 193.695 233.23C194.216 232.129 194.419 230.905 194.281 229.695C194.144 228.485 193.671 227.337 192.917 226.381C194.134 226.357 195.321 225.994 196.344 225.332C197.366 224.67 198.183 223.737 198.704 222.636C199.225 221.534 199.427 220.31 199.29 219.1C199.152 217.89 198.68 216.742 197.925 215.786C199.121 215.76 200.286 215.407 201.294 214.765C202.303 214.123 203.117 213.217 203.647 212.145C194.503 204 180.715 191.923 173.376 186.498C169.823 183.872 165.298 181.926 161.413 180.585C160.498 187.762 157.148 201.623 145.185 201.623C140.218 201.623 125.218 203.579 110.551 178.795L105.839 179.315C89.611 181.12 82.2253 189.853 77.8771 200.287C75.1881 206.741 73.0348 218.569 73.0348 218.569C71.3666 229.412 70.5077 240.365 70.4655 251.336L91.5666 270.866L148.218 272.266C152.753 265.577 161.075 253.224 163.821 248.486C167.348 242.437 167.852 237.397 167.852 237.397C167.852 237.397 173.906 242.13 182.202 247.534C183.532 247.651 184.865 247.358 186.023 246.695C187.182 246.032 188.11 245.031 188.683 243.826Z" fill="#FFBE21"/>
<path d="M164.43 112.101C157.98 104.039 140.234 98.661 126.253 108.876C112.272 119.091 113.349 135.761 113.885 142.216C113.885 142.216 98.8326 137.373 88.0766 148.665C84.9637 151.893 82.6967 155.841 81.4772 160.156C80.2576 164.472 80.1234 169.022 81.0863 173.402C81.0863 173.402 61.2802 172.845 57.4261 191.148C55.2364 201.55 59.3246 208.473 63.86 212.759C66.52 215.255 69.6276 217.226 73.0192 218.569C73.0192 218.569 75.1725 206.741 77.8615 200.287C82.2097 189.853 89.5954 181.12 105.823 179.315L110.535 178.795C121.791 177.537 127.283 176.58 131.558 170.874C136.395 164.419 133.223 151.354 133.223 151.354C133.223 151.354 120.683 148.566 122.467 138.45C124.084 129.311 134.835 129.311 140.749 135.761C140.749 135.761 149.893 133.613 158.495 123.933C158.495 123.933 164.789 125.411 169.08 124.688C168.346 119.84 167.056 115.393 164.43 112.101Z" fill="#30242A"/>
<path d="M249.11 185.115C247.586 184.413 246.676 182.644 246.936 179.263C246.936 179.263 243.784 183.216 240.429 181.458C237.074 179.7 238.416 175.914 238.416 175.914C238.416 175.914 235.389 177.932 232.872 175.394C230.589 173.11 232.352 169.345 232.352 169.345C232.352 169.345 229.002 170.713 227.816 168.336C226.324 165.361 228.139 162.245 230.105 159.858" stroke="#30242A" stroke-width="8" stroke-linecap="round" stroke-linejoin="round"/>
<path d="M80.1292 173.839C80.6991 176.533 81.7264 179.111 83.1667 181.458" stroke="black" stroke-width="4" stroke-miterlimit="10" stroke-linecap="round"/>
<path d="M211.698 220.94L212.962 236.653" stroke="#30242A" stroke-width="4" stroke-linecap="round" stroke-linejoin="round"/>
<path d="M166.084 220.009C169.376 225.939 169.334 233.054 168.908 237.272" stroke="#30242A" stroke-width="4" stroke-linecap="round" stroke-linejoin="round"/>
<path d="M136.343 236.653L120.215 237.158" stroke="#30242A" stroke-width="4" stroke-linecap="round" stroke-linejoin="round"/>
<path d="M151.214 169.558C148.96 168.673 146.761 167.654 144.629 166.505" stroke="#30242A" stroke-width="4" stroke-linecap="round" stroke-linejoin="round"/>
<path d="M155.244 184.485L154.365 178.915" stroke="#30242A" stroke-width="4" stroke-linecap="round" stroke-linejoin="round"/>
<path d="M112.798 142.418L113.916 151.718" stroke="black" stroke-width="4" stroke-miterlimit="10" stroke-linecap="round"/>
<path d="M166.084 153.486C164.945 154.225 161.169 154.469 159.359 151.177" stroke="#30242A" stroke-width="4" stroke-linecap="round" stroke-linejoin="round"/>
<path d="M135.839 142.897L130.799 140.38" stroke="#30242A" stroke-width="4" stroke-linecap="round" stroke-linejoin="round"/>
<path d="M159.109 140.666C158.303 141.763 154.501 143.89 151.64 141.461" stroke="#30242A" stroke-width="4" stroke-linecap="round" stroke-linejoin="round"/>
<path d="M171.358 139.079C170.756 139.207 170.134 139.215 169.529 139.103C168.924 138.99 168.347 138.76 167.831 138.424" stroke="#30242A" stroke-width="4" stroke-linecap="round" stroke-linejoin="round"/>
<path d="M164.539 140.952C165.116 142.257 165.673 143.698 165.553 144.249C165.376 144.92 164.976 145.51 164.419 145.924" stroke="#30242A" stroke-width="4" stroke-linecap="round" stroke-linejoin="round"/>
<path d="M133.077 148.987L126.196 155.479C125.823 155.83 125.547 156.271 125.393 156.759C125.24 157.248 125.214 157.767 125.318 158.269C125.423 158.77 125.654 159.236 125.989 159.623C126.325 160.009 126.754 160.303 127.236 160.477L135.371 163.363C135.854 163.534 136.374 163.578 136.879 163.491C137.384 163.404 137.859 163.189 138.257 162.866C138.655 162.542 138.964 162.123 139.153 161.646C139.343 161.17 139.407 160.652 139.339 160.144L138.086 150.782C138.012 150.238 137.791 149.724 137.446 149.297C137.1 148.87 136.644 148.547 136.127 148.361C135.61 148.176 135.052 148.137 134.514 148.247C133.976 148.357 133.479 148.614 133.077 148.987Z" fill="#F4E6D8"/>
<path d="M231.863 150.714C231.863 150.714 235.389 148.696 238.416 149.705C243.097 151.266 242.411 155.624 242.411 155.624C242.411 155.624 248.975 153.258 250.249 160.196C250.249 160.196 256.168 161.522 254.836 167.441C254.836 167.441 259.627 167.696 258.675 173.974C257.723 180.252 253.536 185.468 251.019 185.468C248.418 185.468 246.582 183.872 246.936 179.227C246.936 179.227 243.784 183.18 240.429 181.422C237.074 179.664 238.416 175.877 238.416 175.877C238.416 175.877 235.389 177.896 232.872 175.357C230.589 173.074 232.352 169.308 232.352 169.308C232.352 169.308 229.002 170.676 227.816 168.299C225.294 163.259 232.232 157.84 233.361 156.207L231.863 150.714Z" fill="#A15842"/>
<path d="M230.365 171.144C233.829 167.967 239.727 161.97 242.525 155.676" stroke="#30242A" stroke-width="4" stroke-linecap="round" stroke-linejoin="round"/>
<path d="M236.726 178.4C242.482 173.505 247.181 167.488 250.535 160.716" stroke="#30242A" stroke-width="4" stroke-linecap="round" stroke-linejoin="round"/>
<path d="M245.636 182.135C247.196 180.231 252.652 173.391 255.357 167.977" stroke="#30242A" stroke-width="4" stroke-linecap="round" stroke-linejoin="round"/>
<path d="M244.658 297.897H157.361L177.204 235.207C177.79 233.362 178.95 231.751 180.513 230.608C182.077 229.465 183.964 228.85 185.9 228.851H259.668C261.102 228.851 262.515 229.188 263.793 229.836C265.072 230.484 266.18 231.424 267.027 232.58C267.874 233.736 268.437 235.076 268.669 236.49C268.901 237.905 268.797 239.354 268.365 240.72L251.955 292.561C251.462 294.109 250.489 295.46 249.177 296.42C247.866 297.379 246.283 297.896 244.658 297.897Z" fill="#30242A"/>
<path d="M106.697 290.839C106.439 291.651 106.377 292.512 106.514 293.353C106.652 294.194 106.986 294.99 107.489 295.678C107.992 296.365 108.65 296.925 109.41 297.31C110.17 297.696 111.01 297.897 111.862 297.897H244.658C246.282 297.893 247.862 297.373 249.171 296.412C250.48 295.451 251.45 294.098 251.939 292.55L252.46 290.839H106.697Z" fill="#30242A"/>
<path d="M231.286 257.978C229.257 255.201 220.035 262.534 219.359 263.143C219.006 262.534 214.21 255.201 210.689 257.978C207.636 260.386 214.33 271.137 216.135 273.878C216.209 273.961 216.301 274.028 216.403 274.074C216.505 274.119 216.616 274.143 216.727 274.143C216.839 274.143 216.95 274.119 217.052 274.074C217.154 274.028 217.246 273.961 217.32 273.878C220.602 271.111 233.049 260.36 231.286 257.978Z" fill="#FFBE21"/>
<path d="M222.859 256.015C223.592 253.662 223.562 251.56 222.791 251.32C222.02 251.08 220.802 252.793 220.069 255.146C219.336 257.499 219.366 259.601 220.137 259.841C220.908 260.081 222.127 258.368 222.859 256.015Z" fill="#FFBE21"/>
<path d="M56.6772 241.059C57.8102 241.495 59.0423 241.609 60.2361 241.387C61.43 241.164 62.5386 240.615 63.4387 239.8C63.5454 241.014 63.9896 242.175 64.7212 243.15C65.4527 244.126 66.4424 244.877 67.5785 245.32C68.7145 245.762 69.9517 245.878 71.1503 245.655C72.3488 245.431 73.461 244.877 74.3611 244.054C74.4706 245.268 74.9165 246.426 75.6487 247.399C76.3809 248.373 77.3702 249.123 78.5054 249.564C79.6405 250.006 80.8764 250.122 82.074 249.899C83.2715 249.676 84.3831 249.124 85.2836 248.304C85.3669 249.261 85.6606 250.189 86.1437 251.02C86.6267 251.851 87.2872 252.565 88.0781 253.112C88.869 253.658 89.7707 254.024 90.719 254.181C91.6672 254.339 92.6386 254.286 93.5639 254.025L101.428 232.903C104.457 224.795 105.893 216.179 105.657 207.527L104.861 179.44C104.861 179.44 86.7139 180.949 76.1295 194.056C70.6995 200.781 60.0423 218.548 53.2132 237.865C53.9308 239.323 55.1657 240.462 56.6772 241.059Z" fill="#FFBE21"/>
<path d="M89.4393 253.817C88.3002 253.378 87.3067 252.629 86.5713 251.655C85.8359 250.68 85.3881 249.52 85.2784 248.304C84.3778 249.124 83.2663 249.676 82.0687 249.899C80.8712 250.122 79.6353 250.006 78.5001 249.564C77.365 249.123 76.3756 248.373 75.6435 247.399C74.9113 246.426 74.4654 245.268 74.3559 244.054C73.4558 244.877 72.3436 245.431 71.145 245.655C69.9465 245.878 68.7093 245.762 67.5732 245.32C66.4372 244.877 65.4475 244.126 64.7159 243.15C63.9844 242.175 63.5402 241.014 63.4335 239.8C62.6847 240.482 61.788 240.981 60.8137 241.257C59.8395 241.533 58.8144 241.58 57.8192 241.393C56.8239 241.206 55.8857 240.79 55.0783 240.179C54.2709 239.568 53.6164 238.777 53.1663 237.87C47.2474 254.613 44.1995 272.526 49.9312 285.419C62.2684 313.188 99.2955 303.415 108.033 300.846C116.771 298.277 133.748 289.533 145.061 291.078C156.373 292.623 169.225 298.277 171.285 291.078C171.285 291.078 178.208 290.901 176.028 284.317C176.028 284.317 179.508 283.885 180.023 281.316C181.063 276.172 168.71 271.548 168.71 271.548C168.71 271.548 178.483 273.108 180.538 271.028C183.138 268.427 180.611 264.23 164.648 260.36C147.115 256.116 123.975 258.685 89.5225 264.854L93.5534 254.02C92.1964 254.401 90.7522 254.33 89.4393 253.817Z" fill="#A15842"/>
<path d="M101.563 230.1L90.053 263.699" stroke="#30242A" stroke-width="4" stroke-linecap="round" stroke-linejoin="round"/>
<path d="M171.815 271.917C166.229 269.795 156.93 266.539 149.71 265.364" stroke="#30242A" stroke-width="4" stroke-linecap="round" stroke-linejoin="round"/>
<path d="M176.174 284.046C168.996 280.816 155.286 274.955 147.911 273.852" stroke="#30242A" stroke-width="4" stroke-linecap="round" stroke-linejoin="round"/>
<path d="M89.6057 263.772C85.736 264.396 79.6611 265.431 73.5913 266.643" stroke="#30242A" stroke-width="4" stroke-linecap="round" stroke-linejoin="round"/>
<path d="M171.072 291.786C165.688 289.045 154.345 283.594 146.371 282.075" stroke="#30242A" stroke-width="4" stroke-linecap="round" stroke-linejoin="round"/>
<path d="M412.005 225.419C412.005 225.419 407.917 234.614 397.192 234.614C386.468 234.614 382.359 225.419 382.359 225.419C382.359 225.419 352.192 294.386 381.839 330.659H412.489C442.12 294.386 412.005 225.419 412.005 225.419Z" fill="#3EC1F3"/>
<path d="M397.166 234.614C407.891 234.614 411.979 225.419 411.979 225.419H382.333C382.333 225.419 386.436 234.614 397.166 234.614Z" fill="#30242A"/>
<path d="M424.873 286.818C408.198 287.115 388.465 293.138 373.277 314.385" stroke="#F5EBDD" stroke-width="4" stroke-linecap="round" stroke-linejoin="round"/>
<path d="M370.609 269.941C381.802 267.21 402.997 264.609 423.542 269.499" stroke="#F5EBDD" stroke-width="4" stroke-linecap="round" stroke-linejoin="round"/>
<path d="M423.448 304.523C415.989 304.612 402.201 313.064 403.72 330.097" stroke="#F5EBDD" stroke-width="4" stroke-linecap="round" stroke-linejoin="round"/>
<path d="M395.289 231.556C394.977 224.144 393.005 194.69 381.303 177.412" stroke="#30242A" stroke-width="4" stroke-miterlimit="10" stroke-linecap="round"/>
<path d="M392.85 208.907C394.346 206.372 386.415 198.921 375.136 192.267C363.857 185.612 353.501 182.273 352.004 184.809C350.508 187.345 358.439 194.795 369.718 201.45C380.997 208.104 391.354 211.443 392.85 208.907Z" fill="#30242A"/>
<path d="M388.47 135.403C390.666 134.151 389.537 128.034 385.949 121.74C382.361 115.447 377.671 111.36 375.476 112.612C373.28 113.864 374.408 119.981 377.997 126.274C381.585 132.568 386.274 136.655 388.47 135.403Z" fill="#30242A"/>
<path d="M349.841 162.084C351.022 159.457 356.576 159.265 363.328 161.278C359.167 153.835 357.892 146.912 360.644 145.128C363.395 143.344 369.21 147.292 374.313 154.142C375.212 147.157 377.646 142.179 380.554 142.148C384.226 142.148 387.232 150.246 387.269 160.264C387.291 163.128 387.036 165.988 386.509 168.804C384.908 168.071 383.149 167.749 381.392 167.868C379.635 167.988 377.936 168.544 376.449 169.487C374.961 170.43 373.733 171.73 372.876 173.269C372.019 174.807 371.56 176.535 371.54 178.296C368.847 177.636 366.222 176.727 363.697 175.581C354.527 171.477 348.338 165.439 349.841 162.084Z" fill="#3546AB"/>
<path d="M376.331 169.558C377.823 168.588 379.536 168.011 381.311 167.881C383.086 167.751 384.866 168.072 386.483 168.814C385.589 173.469 383.971 176.923 382.026 178.046C380.174 179.393 376.253 179.446 371.514 178.306C371.534 176.564 371.984 174.854 372.824 173.328C373.664 171.801 374.869 170.506 376.331 169.558Z" fill="#30242A"/>
<path d="M399.19 231.109C400.625 222.922 408.099 182.785 420.062 160.076" stroke="#30242A" stroke-width="4" stroke-miterlimit="10" stroke-linecap="round"/>
<path d="M460.439 215.701C461.3 213.045 449.809 206.943 434.774 202.073C419.738 197.202 406.852 195.406 405.992 198.063C405.131 200.719 416.622 206.821 431.657 211.691C446.693 216.562 459.579 218.358 460.439 215.701Z" fill="#30242A"/>
<path d="M417.81 124.89C420.681 124.63 423.573 129.379 425.128 136.25C429.559 128.968 434.979 124.464 437.886 125.988C440.794 127.512 440.201 134.513 436.732 142.32C443.264 139.683 448.814 139.35 450.255 141.857C452.065 145.05 446.473 151.65 437.772 156.592C435.29 158.014 432.678 159.195 429.97 160.118C429.822 158.365 429.239 156.677 428.273 155.206C427.308 153.736 425.991 152.529 424.441 151.696C422.892 150.863 421.159 150.43 419.4 150.435C417.641 150.441 415.911 150.885 414.367 151.728C413.624 149.056 413.128 146.321 412.884 143.557C411.922 133.582 414.153 125.223 417.81 124.89Z" fill="#3546AB"/>
<path d="M424.296 151.635C425.873 152.46 427.216 153.67 428.201 155.153C429.186 156.636 429.78 158.344 429.929 160.118C425.429 161.621 421.607 161.907 419.693 160.763C417.612 159.811 415.641 156.415 414.309 151.729C415.837 150.89 417.548 150.443 419.291 150.426C421.033 150.41 422.753 150.825 424.296 151.635Z" fill="#30242A"/>
<path d="M448.819 172.507V172.549C446.373 173.557 444.394 175.446 443.271 177.842C442.149 180.238 441.966 182.968 442.757 185.493C443.548 188.018 445.257 190.155 447.546 191.482C449.835 192.809 452.539 193.23 455.123 192.662V192.703C441.418 196.994 428.894 195.954 427.146 190.373C425.398 184.792 435.114 176.798 448.819 172.507Z" fill="#3546AB"/>
<path d="M445.558 189.999C446.76 189.517 447.736 188.599 448.289 187.429C448.843 186.258 448.934 184.922 448.544 183.687C448.154 182.452 447.312 181.41 446.186 180.77C445.06 180.131 443.734 179.94 442.474 180.236C442.819 178.531 443.58 176.937 444.689 175.596C445.797 174.255 447.22 173.209 448.83 172.549L455.133 192.662C453.441 193.036 451.683 192.988 450.014 192.524C448.344 192.06 446.814 191.192 445.558 189.999Z" fill="#FFB494"/>
<path d="M448.523 183.705C448.909 184.935 448.818 186.265 448.269 187.431C447.72 188.597 446.752 189.513 445.558 189.999C444.26 188.765 443.296 187.223 442.756 185.515C442.217 183.808 442.12 181.991 442.474 180.236C443.734 179.948 445.056 180.145 446.177 180.788C447.298 181.431 448.135 182.472 448.523 183.705Z" fill="#30242A"/>
</svg>
